<svg width="22" height="22" fill="none" xmlns="http://www.w3.org/2000/svg"><path d="M20.887 20.883a.399.399 0 01-.41.097l-4.304-1.436a9.96 9.96 0 01-5.171 1.451c-5.513 0-9.998-4.485-9.998-9.997C1.004 5.485 5.49 1 11.002 1 16.515 1 21 5.485 21 10.998a9.959 9.959 0 01-1.451 5.17l1.435 4.306a.4.4 0 01-.097.409zm-2.156-4.64a.4.4 0 01.041-.34 9.164 9.164 0 001.428-4.905c0-5.072-4.126-9.198-9.198-9.198s-9.198 4.126-9.198 9.198c0 5.071 4.126 9.197 9.198 9.197 1.733 0 3.43-.493 4.906-1.427a.401.401 0 01.34-.042l3.724 1.242-1.241-3.724z" fill="#CC3E1E" stroke="#CC3E1E" stroke-width=".3"/><path d="M15.09 7.8H6.92c-.174 0-.315-.178-.315-.4 0-.22.14-.4.314-.4h8.17c.174 0 .315.18.315.4 0 .222-.141.4-.315.4zM5.805 11c0-.22.141-.4.315-.4h9.769c.173 0 .314.18.314.4 0 .22-.14.4-.314.4H6.12c-.174 0-.315-.18-.315-.4zm1.115 4c-.174 0-.315-.18-.315-.4 0-.221.14-.4.314-.4h8.17c.174 0 .315.179.315.4 0 .22-.141.4-.315.4H6.92z" fill="#CC3E1E" stroke="#CC3E1E" stroke-width=".3"/></svg>