<svg width="21" height="17" fill="none" xmlns="http://www.w3.org/2000/svg"><path d="M18.174 2.792l2.03-.406s-1.675 1.878-2.03 2.03c-.051.914 0 1.219 0 1.219C14.316 22.235 0 14.874 0 14.874c5.229.101 5.635-2.03 5.635-2.03-3.046-.458-3.655-2.437-3.655-2.437C3.046 10.914 3.604 10 3.604 10 .355 9.138.761 5.99.761 5.99c.559.507 1.473.71 1.98.76-.304-.405-3.35-4.111-1.523-5.99 0 0 2.285 4.062 8.173 4.417l.406-.102c-.101-.304-.101-.558-.101-.863A4.203 4.203 0 0113.909 0c2.843 0 3.452 1.624 3.452 1.624l2.03-1.218c0-.05-.202 1.98-1.217 2.386z" fill="#0054A4"/></svg>