<svg width="42" height="45" viewBox="0 0 42 45" fill="none" xmlns="http://www.w3.org/2000/svg">
<path d="M31.6213 37.0311L29.5299 34.9397L28.6804 35.7892L31.6213 38.7308L36.0872 34.2643L35.2376 33.4148L31.6213 37.0311Z" fill="#CC3E1E"/>
<path d="M10.2913 20.5869H9.39491C8.88782 20.5869 8.47687 20.9979 8.47687 21.505C8.47687 22.012 8.88782 22.423 9.39491 22.423H10.2913C10.7984 22.423 11.2094 22.012 11.2094 21.505C11.2094 20.9979 10.7984 20.5869 10.2913 20.5869Z" fill="#CC3E1E"/>
<path d="M10.2913 28.3127H9.39491C8.88782 28.3127 8.47687 28.7237 8.47687 29.2308C8.47687 29.7379 8.88782 30.1488 9.39491 30.1488H10.2913C10.7984 30.1488 11.2094 29.7379 11.2094 29.2308C11.2094 28.7237 10.7984 28.3127 10.2913 28.3127Z" fill="#CC3E1E"/>
<path d="M10.2913 36.0439H9.39491C8.88782 36.0439 8.47687 36.4549 8.47687 36.962C8.47687 37.4691 8.88782 37.88 9.39491 37.88H10.2913C10.7984 37.88 11.2094 37.4691 11.2094 36.962C11.2094 36.4555 10.7984 36.0439 10.2913 36.0439Z" fill="#CC3E1E"/>
<path d="M21.2032 20.5869H20.3068C19.7997 20.5869 19.3888 20.9979 19.3888 21.505C19.3888 22.012 19.7997 22.423 20.3068 22.423H21.2032C21.7103 22.423 22.1213 22.012 22.1213 21.505C22.1213 20.9979 21.7103 20.5869 21.2032 20.5869Z" fill="#CC3E1E"/>
<path d="M21.2032 28.3127H20.3068C19.7997 28.3127 19.3888 28.7237 19.3888 29.2308C19.3888 29.7379 19.7997 30.1488 20.3068 30.1488H21.2032C21.7103 30.1488 22.1213 29.7379 22.1213 29.2308C22.1213 28.7237 21.7103 28.3127 21.2032 28.3127Z" fill="#CC3E1E"/>
<path d="M21.2032 36.0439H20.3068C19.7997 36.0439 19.3888 36.4549 19.3888 36.962C19.3888 37.4691 19.7997 37.88 20.3068 37.88H21.2032C21.7103 37.88 22.1213 37.4691 22.1213 36.962C22.1213 36.4555 21.7103 36.0439 21.2032 36.0439Z" fill="#CC3E1E"/>
<path d="M31.2194 22.423H32.1158C32.6229 22.423 33.0339 22.012 33.0339 21.505C33.0339 20.9979 32.6229 20.5869 32.1158 20.5869H31.2194C30.7123 20.5869 30.3014 20.9979 30.3014 21.505C30.3008 22.012 30.7123 22.423 31.2194 22.423Z" fill="#CC3E1E"/>
<path d="M31.2194 30.1488H32.1158C32.6229 30.1488 33.0339 29.7379 33.0339 29.2308C33.0339 28.7237 32.6229 28.3127 32.1158 28.3127H31.2194C30.7123 28.3127 30.3014 28.7237 30.3014 29.2308C30.3008 29.7379 30.7123 30.1488 31.2194 30.1488Z" fill="#CC3E1E"/>
<path d="M37.6619 3.30627V1.58254C37.6619 0.71016 36.9518 0 36.0794 0H34.7708C33.8984 0 33.1883 0.71016 33.1883 1.58254V3.27202H22.9919V1.58254C22.9919 0.71016 22.2817 0 21.4093 0H20.1002C19.2278 0 18.5176 0.71016 18.5176 1.58254V3.27202H8.32185V1.58254C8.32185 0.71016 7.61169 0 6.73931 0H5.43074C4.55836 0 3.8482 0.71016 3.8482 1.58254V3.33691C1.64983 3.6944 0 5.58275 0 7.87124V40.3938C0 42.9298 2.06319 44.993 4.59922 44.993H37.1218C39.6578 44.993 41.721 42.9292 41.721 40.3938V7.87124C41.7216 5.51846 39.9444 3.57483 37.6619 3.30627ZM34.3899 1.58254C34.3899 1.37226 34.5605 1.20162 34.7708 1.20162H36.0794C36.2897 1.20162 36.4603 1.37226 36.4603 1.58254V6.16313C36.4603 6.37342 36.2897 6.54405 36.0794 6.54405H34.7708C34.5605 6.54405 34.3899 6.37342 34.3899 6.16313V1.58254ZM19.7199 1.58254C19.7199 1.37226 19.8905 1.20162 20.1008 1.20162H21.4099C21.6202 1.20162 21.7909 1.37226 21.7909 1.58254V6.16313C21.7909 6.37342 21.6202 6.54405 21.4099 6.54405H20.1008C19.8905 6.54405 19.7199 6.37342 19.7199 6.16313V1.58254ZM5.05043 1.58254C5.05043 1.37226 5.22106 1.20162 5.43134 1.20162H6.73991C6.9502 1.20162 7.12083 1.37226 7.12083 1.58254V6.16313C7.12083 6.37342 6.9502 6.54405 6.73991 6.54405H5.43134C5.22106 6.54405 5.05043 6.37342 5.05043 6.16313V1.58254ZM3.8488 4.56017V6.16373C3.8488 7.03611 4.55896 7.74627 5.43134 7.74627H6.73991C7.61229 7.74627 8.32245 7.03611 8.32245 6.16373V4.47365H18.5188V6.16373C18.5188 7.03611 19.229 7.74627 20.1014 7.74627H21.4105C22.2829 7.74627 22.9931 7.03611 22.9931 6.16373V4.47365H33.1895V6.16373C33.1895 7.03611 33.8996 7.74627 34.772 7.74627H36.0806C36.953 7.74627 37.6631 7.03611 37.6631 6.16373V4.52051C39.2805 4.78066 40.5212 6.18176 40.5212 7.87124V13.7183H1.20162V7.87124C1.20162 6.24965 2.32334 4.90023 3.8488 4.56017ZM37.1218 43.7914H4.59982C2.72649 43.7914 1.20223 42.2671 1.20223 40.3938V14.9206H40.52V40.3938C40.52 42.2671 38.9957 43.7914 37.1218 43.7914Z" fill="#CC3E1E"/>
</svg>
