<svg width="15" height="15" viewBox="0 0 15 15" fill="none" xmlns="http://www.w3.org/2000/svg">
<path fill-rule="evenodd" clip-rule="evenodd" d="M0.75 9.00012C1.16421 9.00012 1.5 9.33591 1.5 9.75012V12.7501C1.5 12.949 1.57902 13.1398 1.71967 13.2805C1.86032 13.4211 2.05109 13.5001 2.25 13.5001H12.75C12.9489 13.5001 13.1397 13.4211 13.2803 13.2805C13.421 13.1398 13.5 12.949 13.5 12.7501V9.75012C13.5 9.33591 13.8358 9.00012 14.25 9.00012C14.6642 9.00012 15 9.33591 15 9.75012V12.7501C15 13.3469 14.7629 13.9192 14.341 14.3411C13.919 14.7631 13.3467 15.0001 12.75 15.0001H2.25C1.65326 15.0001 1.08097 14.7631 0.65901 14.3411C0.237053 13.9192 0 13.3469 0 12.7501V9.75012C0 9.33591 0.335786 9.00012 0.75 9.00012Z" fill="#0054A4"/>
<path fill-rule="evenodd" clip-rule="evenodd" d="M3.21955 5.46979C3.51244 5.1769 3.98731 5.1769 4.28021 5.46979L7.49988 8.68946L10.7195 5.46979C11.0124 5.1769 11.4873 5.1769 11.7802 5.46979C12.0731 5.76269 12.0731 6.23756 11.7802 6.53045L8.03021 10.2805C7.73731 10.5733 7.26244 10.5733 6.96955 10.2805L3.21955 6.53045C2.92665 6.23756 2.92665 5.76269 3.21955 5.46979Z" fill="#0054A4"/>
<path fill-rule="evenodd" clip-rule="evenodd" d="M7.49988 0C7.91409 0 8.24988 0.335786 8.24988 0.75V9.75C8.24988 10.1642 7.91409 10.5 7.49988 10.5C7.08566 10.5 6.74988 10.1642 6.74988 9.75V0.75C6.74988 0.335786 7.08566 0 7.49988 0Z" fill="#0054A4"/>
</svg>
