<svg width="59" height="58" viewBox="0 0 59 58" fill="none" xmlns="http://www.w3.org/2000/svg">
<path d="M29.5896 1L28.4128 4.62194H24.6046L27.6854 6.86069L26.5085 10.4826L29.5896 8.24421L32.6708 10.4826L31.4939 6.86069L34.5747 4.62194H30.7665L29.5896 1ZM30.7003 6.60297L31.3868 8.71549L29.5896 7.40975L27.7925 8.71549L28.479 6.60297L26.6815 5.29689H28.9032L29.5896 3.18437L30.2761 5.29689H32.4977L30.7003 6.60297Z" fill="#CC3E1E" stroke="#CC3E1E" stroke-width="0.4"/>
<path d="M38.4312 13.2746L41.5123 11.0362L44.5935 13.2746L43.4166 9.65268L46.4977 7.41426H42.6892L41.5123 3.79199L40.3355 7.41426H36.527L39.6081 9.65268L38.4312 13.2746ZM38.6046 8.08922H40.8258L41.5123 5.97636L42.1988 8.08922H44.4201L42.623 9.39496L43.3095 11.5075L41.5123 10.2017L39.7152 11.5075L40.4017 9.39496L38.6046 8.08922Z" fill="#CC3E1E" stroke="#CC3E1E" stroke-width="0.4"/>
<path d="M48.103 18.2415L46.9261 21.8635L50.0072 19.6251L53.0884 21.8635L51.9115 18.2415L54.9923 16.0028H51.1841L50.0072 12.3809L48.8304 16.0028H45.0222L48.103 18.2415ZM49.3208 16.6778L50.0072 14.5652L50.6937 16.6778H52.9153L51.1179 17.9838L51.8044 20.0964L50.0072 18.7906L48.2101 20.0964L48.8966 17.9838L47.0991 16.6778H49.3208Z" fill="#CC3E1E" stroke="#CC3E1E" stroke-width="0.4"/>
<path d="M57.9867 27.8376H54.1782L53.0014 24.2153L51.8245 27.8376H48.016L51.0971 30.076L49.9202 33.6983L53.0014 31.4595L56.0825 33.6983L54.9056 30.076L57.9867 27.8376ZM53.0014 30.6251L51.2042 31.9312L51.8907 29.8183L50.0936 28.5126H52.3149L53.0014 26.3997L53.6878 28.5126H55.9091L54.112 29.8183L54.7985 31.9312L53.0014 30.6251Z" fill="#CC3E1E" stroke="#CC3E1E" stroke-width="0.4"/>
<path d="M51.1842 39.5013L50.0073 35.8794L48.8304 39.5013H45.0219L48.103 41.7398L46.9261 45.362L50.0073 43.1236L53.0884 45.362L51.9115 41.7398L54.9926 39.5013H51.1842ZM51.8044 43.5949L50.0073 42.2891L48.2101 43.5949L48.8966 41.482L47.0995 40.1763H49.3208L50.0073 38.0638L50.6938 40.1763H52.915L51.1179 41.482L51.8044 43.5949Z" fill="#CC3E1E" stroke="#CC3E1E" stroke-width="0.4"/>
<path d="M42.6892 48.1962L41.5123 44.574L40.3355 48.1962H36.527L39.6081 50.4347L38.4312 54.0566L41.5123 51.8182L44.5935 54.0566L43.4166 50.4347L46.4977 48.1962H42.6892ZM43.3095 52.2895L41.5123 50.9837L39.7152 52.2895L40.4017 50.1769L38.6046 48.8712H40.8258L41.5123 46.7583L42.1988 48.8712H44.4201L42.623 50.1769L43.3095 52.2895Z" fill="#CC3E1E" stroke="#CC3E1E" stroke-width="0.4"/>
<path d="M30.7665 51.2042L29.5896 47.5823L28.4128 51.2042H24.6046L27.6854 53.443L26.5085 57.0649L29.5896 54.8265L32.6708 57.0649L31.4939 53.443L34.5747 51.2042H30.7665ZM31.3868 55.2978L29.5896 53.992L27.7925 55.2978L28.479 53.1852L26.6815 51.8792H28.9032L29.5896 49.7666L30.2761 51.8792H32.4977L30.7003 53.1852L31.3868 55.2978Z" fill="#CC3E1E" stroke="#CC3E1E" stroke-width="0.4"/>
<path d="M18.9874 48.1962L17.8106 44.574L16.6337 48.1962H12.8252L15.9063 50.4347L14.7294 54.0566L17.8106 51.8182L20.8917 54.0566L19.7148 50.4347L22.7959 48.1962H18.9874ZM19.6077 52.2895L17.8106 50.9837L16.0134 52.2895L16.6999 50.1769L14.9028 48.8712H17.1241L17.8106 46.7583L18.497 48.8712H20.7183L18.9212 50.1769L19.6077 52.2895Z" fill="#CC3E1E" stroke="#CC3E1E" stroke-width="0.4"/>
<path d="M14.1062 39.5013H10.2977L9.12086 35.8794L7.94397 39.5013H4.1355L7.21662 41.7398L6.03974 45.362L9.12086 43.1236L12.202 45.362L11.0251 41.7398L14.1062 39.5013ZM9.12086 42.2891L7.32373 43.5949L8.01022 41.482L6.21309 40.1763H8.43437L9.12086 38.0638L9.80735 40.1763H12.0286L10.2315 41.482L10.918 43.5949L9.12086 42.2891Z" fill="#CC3E1E" stroke="#CC3E1E" stroke-width="0.4"/>
<path d="M5.98536 31.4595L9.06648 33.6983L7.8896 30.076L10.9707 27.8376H7.16224L5.98536 24.2153L4.80848 27.8376H1L4.08112 30.076L2.90424 33.6983L5.98536 31.4595ZM3.07759 28.5126H5.29887L5.98536 26.3997L6.67185 28.5126H8.89313L7.096 29.8183L7.78249 31.9312L5.98536 30.6251L4.18823 31.9312L4.87472 29.8183L3.07759 28.5126Z" fill="#CC3E1E" stroke="#CC3E1E" stroke-width="0.4"/>
<path d="M6.03977 21.8635L9.12089 19.6251L12.202 21.8635L11.0251 18.2415L14.1059 16.0028H10.2978L9.12089 12.3809L7.94401 16.0028H4.13586L7.21666 18.2415L6.03977 21.8635ZM6.2128 16.6778H8.43441L9.12089 14.5652L9.80738 16.6778H12.029L10.2315 17.9838L10.918 20.0964L9.12089 18.7906L7.32377 20.0964L8.01025 17.9838L6.2128 16.6778Z" fill="#CC3E1E" stroke="#CC3E1E" stroke-width="0.4"/>
<path d="M17.8106 3.79199L16.6337 7.41426H12.8252L15.9063 9.65268L14.7294 13.2746L17.8106 11.0362L20.8917 13.2746L19.7148 9.65268L22.7959 7.41426H18.9874L17.8106 3.79199ZM18.9212 9.39496L19.6077 11.5075L17.8106 10.2017L16.0134 11.5075L16.6999 9.39496L14.9028 8.08922H17.1241L17.8106 5.97636L18.497 8.08922H20.7183L18.9212 9.39496Z" fill="#CC3E1E" stroke="#CC3E1E" stroke-width="0.4"/>
</svg>
