<svg width="44" height="50" viewBox="0 0 44 50" fill="none" xmlns="http://www.w3.org/2000/svg">
<path fill-rule="evenodd" clip-rule="evenodd" d="M8.14527 1H42.6683V41.2077C42.6683 43.1831 42.6683 44.6905 42.56 45.8275C42.452 46.9619 42.2316 47.8008 41.7322 48.3835C41.2233 48.9773 40.4799 49.2432 39.4889 49.3717C38.5065 49.4991 37.2079 49.4991 35.5231 49.499H1V9.29065C0.999999 7.31545 0.999998 5.80815 1.10827 4.67127C1.21629 3.53699 1.43666 2.69811 1.93606 2.11545C2.445 1.52167 3.18838 1.25582 4.17935 1.12736C5.16184 0.999994 6.46043 0.999996 8.14527 1ZM1.78827 4.73603C1.68345 5.83665 1.68308 7.31145 1.68308 9.31098V48.816H35.496C37.2134 48.816 38.4677 48.8153 39.4011 48.6943C40.3313 48.5737 40.8687 48.3414 41.2136 47.939C41.568 47.5254 41.7746 46.87 41.88 45.7627C41.9848 44.662 41.9852 43.1871 41.9852 41.1874V1.68308H8.17229C6.4549 1.68308 5.20059 1.68376 4.26717 1.80476C3.337 1.92535 2.79961 2.15758 2.4547 2.55998C2.10026 2.97351 1.89371 3.6289 1.78827 4.73603Z" fill="#CC3E1E" stroke="#CC3E1E" stroke-width="0.8" stroke-miterlimit="10" stroke-linecap="round"/>
<path fill-rule="evenodd" clip-rule="evenodd" d="M7.83075 35.4966C7.83075 35.3079 7.98366 35.155 8.17229 35.155H35.496C35.6846 35.155 35.8375 35.3079 35.8375 35.4966C35.8375 35.6852 35.6846 35.8381 35.496 35.8381H8.17229C7.98366 35.8381 7.83075 35.6852 7.83075 35.4966Z" fill="#CC3E1E" stroke="#CC3E1E" stroke-width="0.8" stroke-miterlimit="10" stroke-linecap="round"/>
<path fill-rule="evenodd" clip-rule="evenodd" d="M7.83075 39.7085C7.83075 39.5199 7.98366 39.3669 8.17229 39.3669H35.496C35.6846 39.3669 35.8375 39.5199 35.8375 39.7085C35.8375 39.8971 35.6846 40.05 35.496 40.05H8.17229C7.98366 40.05 7.83075 39.8971 7.83075 39.7085Z" fill="#CC3E1E" stroke="#CC3E1E" stroke-width="0.8" stroke-miterlimit="10" stroke-linecap="round"/>
<path d="M14.86 16.0707H13.9944V8.6713H14.86V16.0707Z" fill="#CC3E1E"/>
<path d="M16.516 14.85C17.2864 15.2302 18.1119 15.4203 18.9924 15.4203C20.0764 15.4203 20.6184 14.9267 20.6184 13.9395C20.6184 13.6193 20.5317 13.3608 20.3583 13.164C20.1882 12.9639 19.8763 12.8071 19.4227 12.6937L17.9518 12.3235C16.8278 12.04 16.2658 11.4396 16.2658 10.5224C16.2658 9.81865 16.5076 9.29667 16.9912 8.95647C17.4749 8.61293 18.1436 8.44116 18.9974 8.44116C19.4444 8.44116 19.863 8.48952 20.2532 8.58625C20.6434 8.68297 20.9703 8.81305 21.2338 8.97648L20.9836 9.6819C20.7602 9.5585 20.4633 9.44843 20.0931 9.35171C19.7262 9.25498 19.3543 9.20662 18.9774 9.20662C17.77 9.20662 17.1663 9.6252 17.1663 10.4624C17.1663 10.7459 17.2581 10.9743 17.4415 11.1478C17.6283 11.3179 17.9068 11.448 18.277 11.538L19.6829 11.8782C20.2832 12.0216 20.7385 12.2518 21.0487 12.5686C21.3589 12.8822 21.5139 13.3291 21.5139 13.9094C21.5139 14.6632 21.2821 15.2319 20.8185 15.6155C20.3583 15.9957 19.7312 16.1858 18.9374 16.1858C18.3437 16.1858 17.8151 16.1258 17.3515 16.0057C16.8912 15.8823 16.526 15.7372 16.2558 15.5704L16.516 14.85Z" fill="#CC3E1E"/>
<path d="M23.4101 12.3735C23.4101 13.3241 23.6285 14.0712 24.0655 14.6149C24.5024 15.1552 25.1478 15.4253 26.0016 15.4253C26.8555 15.4253 27.4975 15.1552 27.9278 14.6149C28.3614 14.0745 28.5782 13.3274 28.5782 12.3735C28.5782 11.3996 28.3597 10.6441 27.9228 10.1072C27.4892 9.57017 26.8505 9.30168 26.0066 9.30168C25.1628 9.30168 24.5191 9.57017 24.0755 10.1072C23.6319 10.6441 23.4101 11.3996 23.4101 12.3735ZM29.5037 12.3735C29.5037 12.9372 29.4253 13.4525 29.2686 13.9194C29.1152 14.3864 28.8917 14.7883 28.5982 15.1252C28.308 15.4587 27.9411 15.7189 27.4975 15.9056C27.0539 16.0891 26.5553 16.1808 26.0016 16.1808C25.2545 16.1808 24.6141 16.0224 24.0805 15.7055C23.5502 15.3853 23.1516 14.9417 22.8848 14.3747C22.6213 13.8044 22.4895 13.1356 22.4895 12.3685C22.4895 11.1845 22.798 10.2506 23.4151 9.56684C24.0321 8.88309 24.896 8.54122 26.0066 8.54122C27.1006 8.54122 27.9561 8.88643 28.5732 9.57684C29.1935 10.2639 29.5037 11.1961 29.5037 12.3735Z" fill="#CC3E1E"/>
<path d="M14.86 16.0707H13.9944V8.6713H14.86V16.0707Z" stroke="#CC3E1E" stroke-width="0.5"/>
<path d="M16.516 14.85C17.2864 15.2302 18.1119 15.4203 18.9924 15.4203C20.0764 15.4203 20.6184 14.9267 20.6184 13.9395C20.6184 13.6193 20.5317 13.3608 20.3583 13.164C20.1882 12.9639 19.8763 12.8071 19.4227 12.6937L17.9518 12.3235C16.8278 12.04 16.2658 11.4396 16.2658 10.5224C16.2658 9.81865 16.5076 9.29667 16.9912 8.95647C17.4749 8.61293 18.1436 8.44116 18.9974 8.44116C19.4444 8.44116 19.863 8.48952 20.2532 8.58625C20.6434 8.68297 20.9703 8.81305 21.2338 8.97648L20.9836 9.6819C20.7602 9.5585 20.4633 9.44843 20.0931 9.35171C19.7262 9.25498 19.3543 9.20662 18.9774 9.20662C17.77 9.20662 17.1663 9.6252 17.1663 10.4624C17.1663 10.7459 17.2581 10.9743 17.4415 11.1478C17.6283 11.3179 17.9068 11.448 18.277 11.538L19.6829 11.8782C20.2832 12.0216 20.7385 12.2518 21.0487 12.5686C21.3589 12.8822 21.5139 13.3291 21.5139 13.9094C21.5139 14.6632 21.2821 15.2319 20.8185 15.6155C20.3583 15.9957 19.7312 16.1858 18.9374 16.1858C18.3437 16.1858 17.8151 16.1258 17.3515 16.0057C16.8912 15.8823 16.526 15.7372 16.2558 15.5704L16.516 14.85Z" stroke="#CC3E1E" stroke-width="0.5"/>
<path d="M23.4101 12.3735C23.4101 13.3241 23.6285 14.0712 24.0655 14.6149C24.5024 15.1552 25.1478 15.4253 26.0016 15.4253C26.8555 15.4253 27.4975 15.1552 27.9278 14.6149C28.3614 14.0745 28.5782 13.3274 28.5782 12.3735C28.5782 11.3996 28.3597 10.6441 27.9228 10.1072C27.4892 9.57017 26.8505 9.30168 26.0066 9.30168C25.1628 9.30168 24.5191 9.57017 24.0755 10.1072C23.6319 10.6441 23.4101 11.3996 23.4101 12.3735ZM29.5037 12.3735C29.5037 12.9372 29.4253 13.4525 29.2686 13.9194C29.1152 14.3864 28.8917 14.7883 28.5982 15.1252C28.308 15.4587 27.9411 15.7189 27.4975 15.9056C27.0539 16.0891 26.5553 16.1808 26.0016 16.1808C25.2545 16.1808 24.6141 16.0224 24.0805 15.7055C23.5502 15.3853 23.1516 14.9417 22.8848 14.3747C22.6213 13.8044 22.4895 13.1356 22.4895 12.3685C22.4895 11.1845 22.798 10.2506 23.4151 9.56684C24.0321 8.88309 24.896 8.54122 26.0066 8.54122C27.1006 8.54122 27.9561 8.88643 28.5732 9.57684C29.1935 10.2639 29.5037 11.1961 29.5037 12.3735Z" stroke="#CC3E1E" stroke-width="0.5"/>
</svg>
