<svg width="22" height="22" viewBox="0 0 22 22" fill="none" xmlns="http://www.w3.org/2000/svg">
<path d="M20.8872 20.8828C20.8111 20.9592 20.7087 21 20.6045 21C20.5621 21 20.5195 20.9934 20.4779 20.9795L16.173 19.5444C14.6075 20.494 12.8238 20.9951 11.0018 20.9951C5.48914 20.9951 1.00438 16.5104 1.00438 10.9977C1.00438 5.48495 5.48914 1 11.0018 1C16.5145 1 20.9995 5.48495 20.9995 10.9977C20.9995 12.8196 20.4984 14.6033 19.5488 16.1686L20.9839 20.4735C21.0317 20.6173 20.9944 20.7758 20.8872 20.8828ZM18.7308 16.2438C18.6929 16.1298 18.7081 16.0048 18.7722 15.9034C19.706 14.4277 20.1996 12.7313 20.1996 10.9977C20.1996 5.92589 16.0736 1.79986 11.0018 1.79986C5.93028 1.79986 1.80424 5.92589 1.80424 10.9977C1.80424 16.0692 5.93028 20.1953 11.0018 20.1953C12.7355 20.1953 14.4319 19.7016 15.9078 18.7678C15.9725 18.727 16.0469 18.7059 16.1216 18.7059C16.1642 18.7059 16.2068 18.7127 16.2482 18.7264L19.9721 19.9678L18.7308 16.2438Z" fill="#CC3E1E" stroke="#CC3E1E" stroke-width="0.3"/>
<path d="M15.0895 7.80059H6.9193C6.74583 7.80059 6.60517 7.62152 6.60517 7.40066C6.60517 7.1798 6.74583 7.00073 6.9193 7.00073H15.0895C15.263 7.00073 15.4036 7.1798 15.4036 7.40066C15.4036 7.62152 15.263 7.80059 15.0895 7.80059Z" fill="#CC3E1E" stroke="#CC3E1E" stroke-width="0.3"/>
<path d="M5.80532 11C5.80532 10.7792 5.94637 10.6001 6.12033 10.6001H15.8885C16.0624 10.6001 16.2035 10.7792 16.2035 11C16.2035 11.2209 16.0624 11.4 15.8885 11.4H6.12033C5.94637 11.4 5.80532 11.2209 5.80532 11Z" fill="#CC3E1E" stroke="#CC3E1E" stroke-width="0.3"/>
<path d="M6.9193 14.9993C6.74583 14.9993 6.60517 14.8203 6.60517 14.5994C6.60517 14.3785 6.74583 14.1995 6.9193 14.1995H15.0895C15.263 14.1995 15.4036 14.3785 15.4036 14.5994C15.4036 14.8203 15.263 14.9993 15.0895 14.9993H6.9193Z" fill="#CC3E1E" stroke="#CC3E1E" stroke-width="0.3"/>
</svg>
