<svg width="14" height="13" viewBox="0 0 14 13" fill="none" xmlns="http://www.w3.org/2000/svg">
<path fill-rule="evenodd" clip-rule="evenodd" d="M1.55 1.54492C1.85376 1.54492 2.10001 1.79117 2.10001 2.09492V4.84494H4.85002C5.15378 4.84494 5.40002 5.09118 5.40002 5.39494C5.40002 5.6987 5.15378 5.94495 4.85002 5.94495H1.55C1.24624 5.94495 1 5.6987 1 5.39494V2.09492C1 1.79117 1.24624 1.54492 1.55 1.54492Z" fill="#0054A4" stroke="#0054A4" stroke-width="0.3" stroke-linecap="round" stroke-linejoin="round"/>
<path fill-rule="evenodd" clip-rule="evenodd" d="M6.83296 1.05365C8.01376 0.887516 9.21658 1.10964 10.2602 1.68654C11.3038 2.26345 12.1316 3.16389 12.6189 4.25219C13.1063 5.34049 13.2267 6.55769 12.9621 7.7204C12.6975 8.88311 12.0622 9.92833 11.152 10.6986C10.2417 11.4688 9.10573 11.9224 7.91526 11.9909C6.72479 12.0594 5.5443 11.7392 4.55166 11.0785C3.55902 10.4177 2.808 9.4523 2.41176 8.32763C2.31082 8.04113 2.46125 7.72705 2.74774 7.62612C3.03424 7.52518 3.34832 7.67561 3.44925 7.9621C3.76625 8.86184 4.36706 9.63419 5.16118 10.1628C5.95529 10.6914 6.89968 10.9475 7.85205 10.8927C8.80443 10.8379 9.71319 10.4751 10.4414 9.85887C11.1696 9.24267 11.6779 8.40649 11.8896 7.47632C12.1012 6.54616 12.0049 5.57239 11.615 4.70175C11.2251 3.83111 10.5629 3.11076 9.72798 2.64924C8.89311 2.18771 7.93086 2.01001 6.98621 2.14292C6.04157 2.27582 5.1657 2.71213 4.49059 3.38611C4.48666 3.39002 4.48268 3.39388 4.47863 3.39768L1.92663 5.79568C1.70527 6.00368 1.35719 5.99286 1.14919 5.77149C0.941182 5.55013 0.952011 5.20206 1.17337 4.99405L3.71947 2.6016C4.56255 1.76256 5.65497 1.21938 6.83296 1.05365Z" fill="#0054A4" stroke="#0054A4" stroke-width="0.3" stroke-linecap="round" stroke-linejoin="round"/>
</svg>
