<svg width="18" height="17" viewBox="0 0 18 17" fill="none" xmlns="http://www.w3.org/2000/svg">
<path d="M10.6651 0.196714C10.4718 0.00425376 10.1816 -0.0530355 9.92974 0.0517748C9.67783 0.156585 9.5135 0.402902 9.5135 0.675884V4.2822C5.86627 4.42741 4.03988 5.94069 3.76081 6.19228C1.92071 7.70372 0.664341 9.80995 0.208008 12.148C-0.0201579 13.2777 -0.0610432 14.4372 0.0874627 15.5801L0.0879903 15.584C0.0893091 15.5941 0.0908918 15.6044 0.0924745 15.6144L0.235969 16.4399C0.28424 16.7179 0.500272 16.9368 0.777501 16.9885C1.05499 17.0403 1.33512 16.9138 1.4802 16.6717L1.91016 15.9544C3.23115 13.756 4.87737 12.2987 6.80373 11.6231C7.67261 11.3156 8.59318 11.1807 9.5135 11.2256V14.9607C9.5135 15.2342 9.67836 15.4811 9.93106 15.5853C10.184 15.6899 10.4747 15.6313 10.6675 15.4372L17.8035 8.25892C18.0664 7.99439 18.0654 7.56643 17.8011 7.30322L10.6651 0.196714ZM10.8643 13.3228V10.6175C10.8643 10.286 10.6237 10.0032 10.2964 9.95041C9.71872 9.85721 8.178 9.7091 6.35715 10.3477C4.41471 11.0289 2.73419 12.3692 1.35016 14.3387C1.3462 13.6916 1.4074 13.0456 1.53296 12.4107C1.94339 10.3337 2.98583 8.58919 4.631 7.22613C4.64551 7.21425 4.65923 7.20184 4.67268 7.18864C4.7199 7.14482 6.43497 5.5951 10.1835 5.62309H10.1885C10.5615 5.62309 10.864 5.32027 10.8643 4.94697V2.3019L16.3701 7.78477L10.8643 13.3228Z" fill="#0054A4"/>
</svg>
