<svg width="21" height="17" viewBox="0 0 21 17" fill="none" xmlns="http://www.w3.org/2000/svg">
<path d="M18.1736 2.79203L20.2041 2.38591C20.2041 2.38591 18.5289 4.26419 18.1736 4.41648C18.1228 5.33023 18.1736 5.63482 18.1736 5.63482C14.3155 22.2347 0 14.8739 0 14.8739C5.2287 14.9754 5.63482 12.8433 5.63482 12.8433C2.58897 12.3864 1.9798 10.4066 1.9798 10.4066C3.04585 10.9143 3.60425 10.0005 3.60425 10.0005C0.355349 9.13754 0.761462 5.99017 0.761462 5.99017C1.31987 6.49781 2.23362 6.70086 2.74126 6.75163C2.43668 6.34552 -0.609169 2.63973 1.21834 0.761462C1.21834 0.761462 3.50272 4.82259 9.39136 5.17794L9.79747 5.07641C9.69595 4.77183 9.69595 4.51801 9.69595 4.21342C9.69595 1.87827 11.5742 0 13.9094 0C16.7522 0 17.3613 1.62445 17.3613 1.62445L19.3919 0.406113C19.3919 0.355349 19.1888 2.38591 18.1736 2.79203Z" fill="#0054A4"/>
</svg>
