<svg width="23" height="13" viewBox="0 0 23 13" fill="none" xmlns="http://www.w3.org/2000/svg">
<path d="M10.9815 12.7468H12.3362C12.3362 12.7468 12.7673 12.6852 12.952 12.5004C13.1368 12.3157 13.1368 11.8847 13.1368 11.8847C13.1368 11.8847 13.1368 10.0989 13.9373 9.85257C14.7378 9.60626 15.8462 11.5768 16.9546 12.3773C17.8167 12.9315 18.4325 12.8083 18.4325 12.8083L21.4499 12.7468C21.4499 12.7468 22.9893 12.6236 22.2504 11.392C22.1888 11.2689 21.8193 10.4684 20.0336 8.80573C18.1862 7.08153 18.4325 7.32785 20.6493 4.3105C22.0041 2.46314 22.5583 1.35473 22.3735 0.8621C22.1888 0.43105 21.2036 0.554207 21.2036 0.554207H17.8167C17.8167 0.554207 17.5704 0.492628 17.3857 0.615786C17.2009 0.738943 17.0778 0.985257 17.0778 0.985257C17.0778 0.985257 16.5236 2.40156 15.8462 3.63313C14.3683 6.15786 13.7525 6.34259 13.5062 6.15786C12.952 5.84996 13.0752 4.74155 13.0752 3.94103C13.0752 1.47789 13.4447 0.431049 12.3362 0.184735C11.9668 0.123157 11.7205 0.0615786 10.7352 0C9.50363 0 8.51837 0 7.96416 0.307893C7.59469 0.492628 7.2868 0.923678 7.47153 0.923678C7.71785 0.923678 8.21048 1.04684 8.45679 1.41631C8.82626 1.90893 8.76468 2.95577 8.76468 2.95577C8.76468 2.95577 8.94942 5.84996 8.27205 6.21943C7.841 6.46575 7.22522 5.97312 5.87049 3.63313C5.19313 2.46314 4.63892 1.16999 4.63892 1.16999C4.63892 1.16999 4.63892 0.923678 4.45418 0.800521C4.20787 0.615785 3.96155 0.615786 3.96155 0.615786H0.759469C0.759469 0.615786 0.26684 0.615785 0.0821048 0.8621C-0.102631 1.04684 0.0821048 1.41631 0.0821048 1.41631C0.0821048 1.41631 2.60683 7.26627 5.43944 10.222C8.02574 12.9315 10.9815 12.7468 10.9815 12.7468Z" fill="#0054A4"/>
</svg>
