<svg width="947" height="666" viewBox="0 0 947 666" fill="none" xmlns="http://www.w3.org/2000/svg">
<path d="M1.00003 0.999996L88 333L1 665" stroke="#95C5F3"/>
<path d="M34 0.999996L121 333L34 665" stroke="#95C5F3"/>
<path d="M67 0.999996L154 333L67 665" stroke="#95C5F3"/>
<path d="M100 0.999996L187 333L100 665" stroke="#95C5F3"/>
<path d="M133 0.999996L220 333L133 665" stroke="#95C5F3"/>
<path d="M166 0.999996L253 333L166 665" stroke="#95C5F3"/>
<path d="M199 0.999996L286 333L199 665" stroke="#95C5F3"/>
<path d="M232 0.999996L319 333L232 665" stroke="#95C5F3"/>
<path d="M265 0.999996L352 333L265 665" stroke="#95C5F3"/>
<path d="M298 0.999996L385 333L298 665" stroke="#95C5F3"/>
<path d="M331 0.999996L418 333L331 665" stroke="#95C5F3"/>
<path d="M364 0.999996L451 333L364 665" stroke="#95C5F3"/>
<path d="M397 0.999996L484 333L397 665" stroke="#95C5F3"/>
<path d="M430 0.999996L517 333L430 665" stroke="#95C5F3"/>
<path d="M463 0.999996L550 333L463 665" stroke="#95C5F3"/>
<path d="M496 0.999996L583 333L496 665" stroke="#95C5F3"/>
<path d="M529 0.999996L616 333L529 665" stroke="#95C5F3"/>
<path d="M562 0.999996L649 333L562 665" stroke="#95C5F3"/>
<path d="M595 0.999996L682 333L595 665" stroke="#95C5F3"/>
<path d="M628 0.999996L715 333L628 665" stroke="#95C5F3"/>
<path d="M661 0.999996L748 333L661 665" stroke="#95C5F3"/>
<path d="M694 0.999996L781 333L694 665" stroke="#95C5F3"/>
<path d="M727 0.999996L814 333L727 665" stroke="#95C5F3"/>
<path d="M760 0.999996L847 333L760 665" stroke="#95C5F3"/>
<path d="M793 0.999996L880 333L793 665" stroke="#95C5F3"/>
<path d="M826 0.999996L913 333L826 665" stroke="#95C5F3"/>
<path d="M859 0.999996L946 333L859 665" stroke="#95C5F3"/>
</svg>
