<svg width="64" height="50" viewBox="0 0 64 50" fill="none" xmlns="http://www.w3.org/2000/svg">
<path d="M1 24.5V9L44.5 32.5V48.5L1 24.5Z" fill="#CC3E1E" fill-opacity="0.15"/>
<path d="M44.5319 49L1 24.8345V9.27586M44.5319 49L63 39.069V22.8483M44.5319 49V32.4483M63 22.8483L19.4681 1L1 9.27586M63 22.8483L44.5319 32.4483M1 9.27586L44.5319 32.4483" stroke="#CC3E1E"/>
<path d="M31 28V39M31 28L33 30M31 28L29 30M31 39L33 37M31 39L29 37" stroke="#CC3E1E"/>
<path d="M12 18V29M12 18L14 20M12 18L10 20M12 29L14 27M12 29L10 27" stroke="#CC3E1E"/>
</svg>
