<svg width="42" height="45" fill="none" xmlns="http://www.w3.org/2000/svg"><path d="M31.621 37.031L29.53 34.94l-.85.85 2.941 2.94 4.466-4.466-.85-.85-3.616 3.617zm-21.33-16.444h-.896a.918.918 0 100 1.836h.896a.918.918 0 100-1.836zm0 7.726h-.896a.918.918 0 100 1.836h.896a.918.918 0 100-1.836zm0 7.731h-.896a.918.918 0 100 1.836h.896a.918.918 0 100-1.836zm10.912-15.457h-.896a.918.918 0 100 1.836h.896a.918.918 0 100-1.836zm0 7.726h-.896a.918.918 0 100 1.836h.896a.918.918 0 100-1.836zm0 7.731h-.896a.918.918 0 100 1.836h.896a.918.918 0 100-1.836zM31.22 22.423h.896a.918.918 0 100-1.836h-.897a.918.918 0 100 1.836zm0 7.726h.896a.918.918 0 100-1.836h-.897a.918.918 0 100 1.836z" fill="#CC3E1E"/><path d="M37.662 3.306V1.583C37.662.71 36.952 0 36.079 0h-1.308c-.873 0-1.583.71-1.583 1.583v1.689H22.992v-1.69C22.992.71 22.282 0 21.409 0H20.1c-.872 0-1.582.71-1.582 1.583v1.689H8.322v-1.69C8.322.71 7.612 0 6.739 0H5.431c-.873 0-1.583.71-1.583 1.583v1.754A4.578 4.578 0 000 7.87v32.523a4.604 4.604 0 004.6 4.599h32.522a4.605 4.605 0 004.599-4.6V7.872a4.603 4.603 0 00-4.06-4.565zM34.39 1.583c0-.21.17-.381.38-.381h1.31c.21 0 .38.17.38.38v4.581a.38.38 0 01-.38.381h-1.31a.38.38 0 01-.38-.38V1.582zm-14.67 0c0-.21.17-.381.38-.381h1.31c.21 0 .38.17.38.38v4.581a.38.38 0 01-.38.381H20.1a.38.38 0 01-.38-.38V1.582zm-14.67 0c0-.21.171-.381.381-.381H6.74c.21 0 .38.17.38.38v4.581a.38.38 0 01-.38.381H5.43a.38.38 0 01-.38-.38V1.582zM3.85 4.56v1.604c0 .872.71 1.582 1.582 1.582H6.74c.872 0 1.582-.71 1.582-1.582v-1.69H18.52v1.69c0 .872.71 1.582 1.582 1.582h1.31c.872 0 1.582-.71 1.582-1.582v-1.69H33.19v1.69c0 .872.71 1.582 1.582 1.582h1.309c.872 0 1.582-.71 1.582-1.582V4.52a3.4 3.4 0 012.858 3.35v5.847H1.201V7.871a3.38 3.38 0 012.648-3.31zm33.273 39.231H4.6a3.402 3.402 0 01-3.398-3.397V14.92H40.52v25.473a3.402 3.402 0 01-3.398 3.397z" fill="#CC3E1E"/></svg>