<svg width="59" height="58" fill="none" xmlns="http://www.w3.org/2000/svg"><path d="M29.59 1l-1.177 3.622h-3.808l3.08 2.239-1.176 3.622 3.08-2.239 3.082 2.239-1.177-3.622 3.08-2.24h-3.807L29.59 1zm1.11 5.603l.687 2.112L29.59 7.41l-1.797 1.305.686-2.112-1.797-1.306h2.221l.687-2.113.686 2.113h2.222L30.7 6.603zm7.731 6.672l3.081-2.239 3.081 2.239-1.176-3.622 3.08-2.239H42.69l-1.177-3.622-1.176 3.622h-3.809l3.081 2.239-1.177 3.622zm.174-5.186h2.22l.687-2.113.687 2.113h2.221l-1.797 1.306.687 2.113-1.798-1.306-1.797 1.306.687-2.113-1.797-1.306zm9.498 10.152l-1.177 3.622 3.081-2.238 3.081 2.238-1.177-3.622 3.081-2.238h-3.808l-1.177-3.622-1.177 3.622h-3.808l3.081 2.238zm1.218-1.563l.686-2.113.687 2.113h2.221l-1.797 1.306.686 2.112-1.797-1.305-1.797 1.305.687-2.112-1.798-1.306h2.222zm8.666 11.16h-3.809l-1.177-3.623-1.176 3.623h-3.809l3.081 2.238-1.177 3.622 3.081-2.239 3.082 2.24-1.177-3.623 3.08-2.238zM53 30.625l-1.797 1.306.687-2.113-1.797-1.305h2.22L53 26.4l.687 2.113h2.221l-1.797 1.305.686 2.113L53 30.625zm-1.816 8.876l-1.177-3.622-1.177 3.622h-3.808l3.081 2.239-1.177 3.622 3.081-2.238 3.081 2.238-1.177-3.622 3.082-2.239h-3.809zm.62 4.094l-1.797-1.306-1.797 1.306.687-2.113-1.797-1.306h2.22l.687-2.112.687 2.112h2.221l-1.797 1.306.686 2.113zm-9.114 4.601l-1.178-3.622-1.176 3.622h-3.809l3.081 2.239-1.177 3.622 3.081-2.239 3.081 2.239-1.176-3.622 3.08-2.239H42.69zm.62 4.093l-1.798-1.305-1.797 1.305.687-2.112-1.797-1.306h2.22l.687-2.113.687 2.113h2.221l-1.797 1.306.687 2.112zm-12.543-1.085l-1.177-3.622-1.177 3.622h-3.808l3.08 2.239-1.176 3.622 3.08-2.238 3.082 2.238-1.177-3.622 3.08-2.239h-3.807zm.62 4.094l-1.797-1.306-1.797 1.306.686-2.113-1.797-1.306h2.221l.687-2.112.686 2.112h2.222L30.7 53.185l.687 2.113zm-12.4-7.102l-1.176-3.622-1.177 3.622h-3.809l3.081 2.239-1.177 3.622 3.082-2.239 3.08 2.239-1.176-3.622 3.08-2.239h-3.808zm.62 4.093l-1.796-1.305-1.798 1.305.687-2.112-1.797-1.306h2.221l.687-2.113.686 2.113h2.221l-1.797 1.306.687 2.112zm-5.501-12.788h-3.808L9.12 35.88l-1.177 3.622H4.136l3.08 2.239-1.176 3.622 3.08-2.238 3.082 2.238-1.177-3.622 3.081-2.239zM9.121 42.29l-1.797 1.306.686-2.113-1.797-1.306h2.221l.687-2.112.686 2.112h2.222l-1.797 1.306.686 2.113-1.797-1.306zM5.985 31.46l3.081 2.238-1.176-3.622 3.08-2.238H7.163l-1.177-3.623-1.177 3.623H1l3.081 2.238-1.177 3.622 3.081-2.239zm-2.907-2.947h2.22l.687-2.113.687 2.113h2.221l-1.797 1.305.686 2.113-1.797-1.306-1.797 1.306.687-2.113-1.797-1.305zm2.962-6.65l3.08-2.238 3.082 2.238-1.177-3.622 3.08-2.238h-3.807L9.12 12.38l-1.177 3.622H4.136l3.08 2.238-1.176 3.622zm.173-5.185h2.221l.687-2.113.686 2.113h2.222l-1.797 1.306.686 2.112-1.797-1.305-1.797 1.305.686-2.112-1.797-1.306zM17.81 3.792l-1.176 3.622h-3.809l3.081 2.239-1.177 3.622 3.082-2.239 3.08 2.239-1.176-3.622 3.08-2.239h-3.808l-1.176-3.622zm1.111 5.603l.687 2.113-1.797-1.306-1.798 1.306.687-2.113-1.797-1.306h2.221l.687-2.113.686 2.113h2.221l-1.797 1.306z" fill="#CC3E1E" stroke="#CC3E1E" stroke-width=".4"/></svg>