<svg width="44" height="50" fill="none" xmlns="http://www.w3.org/2000/svg"><path fill-rule="evenodd" clip-rule="evenodd" d="M8.145 1h34.523v40.208c0 1.975 0 3.483-.108 4.62-.108 1.134-.328 1.973-.828 2.555-.509.594-1.252.86-2.243.989-.982.127-2.281.127-3.966.127H1V9.291c0-1.976 0-3.483.108-4.62.108-1.134.329-1.973.828-2.556.509-.593 1.252-.86 2.243-.988C5.162 1 6.46 1 8.145 1zM1.788 4.736c-.105 1.1-.105 2.575-.105 4.575v39.505h33.813c1.717 0 2.972 0 3.905-.122.93-.12 1.468-.353 1.813-.755.354-.414.56-1.069.666-2.176.105-1.101.105-2.576.105-4.576V1.683H8.172c-1.717 0-2.971 0-3.905.122-.93.12-1.467.353-1.812.755-.355.414-.561 1.069-.667 2.176z" fill="#CC3E1E" stroke="#CC3E1E" stroke-width=".8" stroke-miterlimit="10" stroke-linecap="round"/><path fill-rule="evenodd" clip-rule="evenodd" d="M7.83 35.497c0-.19.154-.342.342-.342h27.324a.342.342 0 010 .683H8.172a.342.342 0 01-.341-.341zm0 4.212c0-.19.154-.342.342-.342h27.324a.342.342 0 010 .683H8.172a.342.342 0 01-.341-.341z" fill="#CC3E1E" stroke="#CC3E1E" stroke-width=".8" stroke-miterlimit="10" stroke-linecap="round"/><path d="M14.86 16.07h-.866V8.672h.866v7.4zm1.656-1.22c.77.38 1.596.57 2.476.57 1.084 0 1.626-.493 1.626-1.48 0-.32-.086-.58-.26-.776-.17-.2-.482-.357-.935-.47l-1.471-.37c-1.124-.284-1.686-.884-1.686-1.802 0-.703.242-1.225.725-1.566.484-.343 1.153-.515 2.006-.515.447 0 .866.049 1.256.145.39.097.717.227.98.39l-.25.706a3.927 3.927 0 00-.89-.33 4.359 4.359 0 00-1.116-.145c-1.207 0-1.81.418-1.81 1.255 0 .284.091.512.274.686.187.17.466.3.836.39l1.406.34c.6.144 1.055.374 1.366.69.31.314.465.761.465 1.341 0 .754-.232 1.323-.695 1.707-.46.38-1.088.57-1.882.57-.593 0-1.122-.06-1.585-.18-.46-.124-.826-.269-1.096-.436l.26-.72zm6.894-2.477c0 .951.218 1.698.655 2.242.437.54 1.083.81 1.937.81.854 0 1.495-.27 1.926-.81.433-.54.65-1.288.65-2.242 0-.973-.218-1.729-.655-2.266-.434-.537-1.072-.805-1.916-.805-.844 0-1.488.268-1.931.805-.444.537-.666 1.293-.666 2.267zm6.094 0a4.85 4.85 0 01-.235 1.546 3.45 3.45 0 01-.67 1.206 2.942 2.942 0 01-1.102.78 3.88 3.88 0 01-1.495.276c-.747 0-1.388-.159-1.921-.476a3.023 3.023 0 01-1.196-1.33c-.264-.57-.396-1.24-.396-2.007 0-1.184.309-2.117.926-2.801.617-.684 1.481-1.026 2.592-1.026 1.094 0 1.95.345 2.566 1.036.62.687.93 1.62.93 2.796z" fill="#CC3E1E"/><path d="M14.86 16.07h-.866V8.672h.866v7.4zm1.656-1.22c.77.38 1.596.57 2.476.57 1.084 0 1.626-.493 1.626-1.48 0-.32-.086-.58-.26-.776-.17-.2-.482-.357-.935-.47l-1.471-.37c-1.124-.284-1.686-.884-1.686-1.802 0-.703.242-1.225.725-1.566.484-.343 1.153-.515 2.006-.515.447 0 .866.049 1.256.145.39.097.717.227.98.39l-.25.706a3.927 3.927 0 00-.89-.33 4.359 4.359 0 00-1.116-.145c-1.207 0-1.81.418-1.81 1.255 0 .284.091.512.274.686.187.17.466.3.836.39l1.406.34c.6.144 1.055.374 1.366.69.31.314.465.761.465 1.341 0 .754-.232 1.323-.695 1.707-.46.38-1.088.57-1.882.57-.593 0-1.122-.06-1.585-.18-.46-.124-.826-.269-1.096-.436l.26-.72zm6.894-2.477c0 .951.218 1.698.655 2.242.437.54 1.083.81 1.937.81.854 0 1.495-.27 1.926-.81.433-.54.65-1.288.65-2.242 0-.973-.218-1.729-.655-2.266-.434-.537-1.072-.805-1.916-.805-.844 0-1.488.268-1.931.805-.444.537-.666 1.293-.666 2.267zm6.094 0a4.85 4.85 0 01-.235 1.546 3.45 3.45 0 01-.67 1.206 2.942 2.942 0 01-1.102.78 3.88 3.88 0 01-1.495.276c-.747 0-1.388-.159-1.921-.476a3.023 3.023 0 01-1.196-1.33c-.264-.57-.396-1.24-.396-2.007 0-1.184.309-2.117.926-2.801.617-.684 1.481-1.026 2.592-1.026 1.094 0 1.95.345 2.566 1.036.62.687.93 1.62.93 2.796z" stroke="#CC3E1E" stroke-width=".5"/></svg>