<svg width="14" height="13" fill="none" xmlns="http://www.w3.org/2000/svg"><path fill-rule="evenodd" clip-rule="evenodd" d="M1.55 1.545a.55.55 0 01.55.55v2.75h2.75a.55.55 0 110 1.1h-3.3a.55.55 0 01-.55-.55v-3.3a.55.55 0 01.55-.55z" fill="#CC3E1E" stroke="#CC3E1E" stroke-width=".3" stroke-linecap="round" stroke-linejoin="round"/><path fill-rule="evenodd" clip-rule="evenodd" d="M6.833 1.054a5.5 5.5 0 11-4.421 7.274.55.55 0 111.037-.366 4.4 4.4 0 101.03-4.564L1.927 5.796a.55.55 0 01-.754-.802L3.72 2.602a5.5 5.5 0 013.114-1.548z" fill="#CC3E1E" stroke="#CC3E1E" stroke-width=".3" stroke-linecap="round" stroke-linejoin="round"/></svg>