<svg width="18" height="17" fill="none" xmlns="http://www.w3.org/2000/svg"><path d="M10.665.197a.675.675 0 00-1.151.479v3.606c-3.648.145-5.474 1.659-5.753 1.91a10.248 10.248 0 00-3.553 5.956 10.493 10.493 0 00-.12 3.432v.004l.004.03.144.826a.676.676 0 001.244.232l.43-.718c1.321-2.198 2.967-3.655 4.894-4.33a7.087 7.087 0 012.71-.398v3.735a.676.676 0 001.154.476l7.136-7.178a.676.676 0 00-.003-.956L10.665.197zm.2 13.126v-2.706a.676.676 0 00-.569-.667c-.577-.093-2.118-.24-3.939.398-1.942.68-3.623 2.021-5.007 3.99a9.634 9.634 0 01.183-1.927c.41-2.077 1.453-3.822 3.098-5.185a.62.62 0 00.042-.037c.047-.044 1.762-1.594 5.51-1.566h.005a.676.676 0 00.676-.676V2.302l5.506 5.483-5.506 5.538z" fill="#0054A4"/></svg>