<svg width="23" height="13" fill="none" xmlns="http://www.w3.org/2000/svg"><path d="M10.982 12.747h1.354s.431-.062.616-.247c.185-.184.185-.615.185-.615s0-1.786.8-2.032c.8-.247 1.91 1.724 3.018 2.524.862.554 1.478.431 1.478.431l3.017-.061s1.54-.123.8-1.355c-.061-.123-.43-.924-2.216-2.586-1.848-1.724-1.601-1.478.615-4.495 1.355-1.848 1.91-2.956 1.724-3.449-.184-.431-1.17-.308-1.17-.308h-3.386s-.247-.061-.431.062c-.185.123-.308.37-.308.37s-.554 1.416-1.232 2.647c-1.478 2.525-2.094 2.71-2.34 2.525-.554-.308-.43-1.416-.43-2.217 0-2.463.369-3.51-.74-3.756-.37-.062-.616-.123-1.6-.185-1.232 0-2.218 0-2.772.308-.37.185-.677.616-.492.616.246 0 .738.123.985.492.37.493.308 1.54.308 1.54s.184 2.894-.493 3.263c-.431.247-1.047-.246-2.402-2.586-.677-1.17-1.23-2.463-1.23-2.463s0-.246-.185-.37C4.208.617 3.962.617 3.962.617H.759s-.492 0-.677.246c-.185.185 0 .554 0 .554s2.525 5.85 5.357 8.806c2.587 2.71 5.543 2.525 5.543 2.525z" fill="#0054A4"/></svg>