<svg width="947" height="666" fill="none" xmlns="http://www.w3.org/2000/svg"><path d="M1 1l87 332L1 665" stroke="#95C5F3"/><path d="M34 1l87 332-87 332" stroke="#95C5F3"/><path d="M67 1l87 332-87 332" stroke="#95C5F3"/><path d="M100 1l87 332-87 332" stroke="#95C5F3"/><path d="M133 1l87 332-87 332" stroke="#95C5F3"/><path d="M166 1l87 332-87 332" stroke="#95C5F3"/><path d="M199 1l87 332-87 332" stroke="#95C5F3"/><path d="M232 1l87 332-87 332" stroke="#95C5F3"/><path d="M265 1l87 332-87 332" stroke="#95C5F3"/><path d="M298 1l87 332-87 332" stroke="#95C5F3"/><path d="M331 1l87 332-87 332" stroke="#95C5F3"/><path d="M364 1l87 332-87 332" stroke="#95C5F3"/><path d="M397 1l87 332-87 332" stroke="#95C5F3"/><path d="M430 1l87 332-87 332" stroke="#95C5F3"/><path d="M463 1l87 332-87 332" stroke="#95C5F3"/><path d="M496 1l87 332-87 332" stroke="#95C5F3"/><path d="M529 1l87 332-87 332" stroke="#95C5F3"/><path d="M562 1l87 332-87 332" stroke="#95C5F3"/><path d="M595 1l87 332-87 332" stroke="#95C5F3"/><path d="M628 1l87 332-87 332" stroke="#95C5F3"/><path d="M661 1l87 332-87 332" stroke="#95C5F3"/><path d="M694 1l87 332-87 332" stroke="#95C5F3"/><path d="M727 1l87 332-87 332" stroke="#95C5F3"/><path d="M760 1l87 332-87 332" stroke="#95C5F3"/><path d="M793 1l87 332-87 332" stroke="#95C5F3"/><path d="M826 1l87 332-87 332" stroke="#95C5F3"/><path d="M859 1l87 332-87 332" stroke="#95C5F3"/></svg>