<svg xmlns="http://www.w3.org/2000/svg" xmlns:xlink="http://www.w3.org/1999/xlink" width="49" height="198" viewBox="0 0 49 198"><svg width="49" height="44" viewBox="0 0 49 44" fill="none" id="multi-str-blue" y="0"><path d="M1 1l5.503 21L1 43M6.871 1l5.503 21-5.503 21M12.743 1l5.503 21-5.503 21M18.614 1l5.503 21-5.503 21M24.485 1l5.503 21-5.503 21M30.356 1l5.503 21-5.503 21M36.228 1l5.503 21-5.503 21M42.1 1l5.502 21L42.1 43" stroke="#95C5F3"></path></svg><svg width="49" height="44" viewBox="0 0 49 44" fill="none" id="multi-str-orange" y="44"><path d="M1 1l5.503 21L1 43M6.871 1l5.503 21-5.503 21M12.743 1l5.503 21-5.503 21M18.614 1l5.503 21-5.503 21M24.485 1l5.503 21-5.503 21M30.356 1l5.503 21-5.503 21M36.228 1l5.503 21-5.503 21M42.1 1l5.502 21L42.1 43" stroke="#CC3E1E"></path></svg><svg width="20" height="17" viewBox="0 0 20 17" fill="none" id="print" y="88"><rect x="4.56" y=".75" width="10.881" height="4.69" rx="1.25" fill="#fff" stroke="#0054A4" stroke-width="1.5"></rect><rect x=".75" y="4.893" width="18.5" height="8.5" rx="1.25" fill="#fff" stroke="#0054A4" stroke-width="1.5"></rect><rect x="4.56" y="11.56" width="10.881" height="4.69" rx="1.25" fill="#fff" stroke="#0054A4" stroke-width="1.5"></rect></svg><svg width="14" height="13" viewBox="0 0 14 13" fill="none" id="reset" y="105"><path fill-rule="evenodd" clip-rule="evenodd" d="M1.55 1.545a.55.55 0 0 1 .55.55v2.75h2.75a.55.55 0 1 1 0 1.1h-3.3a.55.55 0 0 1-.55-.55v-3.3a.55.55 0 0 1 .55-.55z" fill="#0054A4" stroke="#0054A4" stroke-width=".3" stroke-linecap="round" stroke-linejoin="round"></path><path fill-rule="evenodd" clip-rule="evenodd" d="M6.833 1.054a5.5 5.5 0 1 1-4.421 7.274.55.55 0 1 1 1.037-.366 4.4 4.4 0 1 0 1.03-4.564L1.927 5.796a.55.55 0 0 1-.754-.802L3.72 2.602a5.5 5.5 0 0 1 3.114-1.548z" fill="#0054A4" stroke="#0054A4" stroke-width=".3" stroke-linecap="round" stroke-linejoin="round"></path></svg><svg width="14" height="13" viewBox="0 0 14 13" fill="none" id="reset-color" y="118"><path fill-rule="evenodd" clip-rule="evenodd" d="M1.55 1.545a.55.55 0 0 1 .55.55v2.75h2.75a.55.55 0 1 1 0 1.1h-3.3a.55.55 0 0 1-.55-.55v-3.3a.55.55 0 0 1 .55-.55z" fill="#CC3E1E" stroke="#CC3E1E" stroke-width=".3" stroke-linecap="round" stroke-linejoin="round"></path><path fill-rule="evenodd" clip-rule="evenodd" d="M6.833 1.054a5.5 5.5 0 1 1-4.421 7.274.55.55 0 1 1 1.037-.366 4.4 4.4 0 1 0 1.03-4.564L1.927 5.796a.55.55 0 0 1-.754-.802L3.72 2.602a5.5 5.5 0 0 1 3.114-1.548z" fill="#CC3E1E" stroke="#CC3E1E" stroke-width=".3" stroke-linecap="round" stroke-linejoin="round"></path></svg><svg width="18" height="18" viewBox="0 0 18 18" fill="none" id="search" y="131"><path fill-rule="evenodd" clip-rule="evenodd" d="M8.1 1.8a6.3 6.3 0 1 0 0 12.6 6.3 6.3 0 0 0 0-12.6zM0 8.1a8.1 8.1 0 1 1 16.2 0A8.1 8.1 0 0 1 0 8.1z" fill="#0054A4"></path><path fill-rule="evenodd" clip-rule="evenodd" d="M12.549 12.549a.9.9 0 0 1 1.272 0l3.915 3.915a.9.9 0 1 1-1.272 1.272l-3.915-3.915a.9.9 0 0 1 0-1.272z" fill="#0054A4"></path></svg><svg width="18" height="17" viewBox="0 0 18 17" fill="none" id="share" y="149"><path d="M10.665.197a.675.675 0 0 0-1.151.479v3.606c-3.648.145-5.474 1.659-5.753 1.91a10.248 10.248 0 0 0-3.553 5.956c-.228 1.13-.269 2.29-.12 3.432v.004l.004.03.144.826a.676.676 0 0 0 1.244.232l.43-.718c1.321-2.198 2.967-3.655 4.894-4.33a7.087 7.087 0 0 1 2.71-.398v3.735a.676.676 0 0 0 1.154.476l7.136-7.178a.676.676 0 0 0-.003-.956L10.665.197zm.2 13.126v-2.706a.676.676 0 0 0-.569-.667c-.577-.093-2.118-.24-3.939.398-1.942.68-3.623 2.021-5.007 3.99a9.634 9.634 0 0 1 .183-1.927c.41-2.077 1.453-3.822 3.098-5.185a.62.62 0 0 0 .042-.037c.047-.044 1.762-1.594 5.51-1.566h.005a.676.676 0 0 0 .676-.676V2.302l5.506 5.483-5.506 5.538z" fill="#0054A4"></path></svg><svg width="17" height="16" viewBox="0 0 17 16" fill="none" id="str-big-link-inside" y="166"><path d="M1 8h14.5m0 0l-7-7m7 7l-7 7" stroke="#fff" stroke-width="1.5" stroke-linecap="round"></path></svg><svg width="17" height="16" viewBox="0 0 17 16" fill="none" id="str-link" y="182"><path d="M1 8h14.5m0 0l-7-7m7 7l-7 7" stroke="#CC3E1E" stroke-width="1.5" stroke-linecap="round"></path></svg></svg>