<svg xmlns="http://www.w3.org/2000/svg" xmlns:xlink="http://www.w3.org/1999/xlink" width="49" height="287" viewBox="0 0 49 287"><svg width="10" height="20" viewBox="0 0 10 20" fill="none" id="fb" y="0"><path d="M6.41 4.41v2h3.231L9.231 10H6.41v10H2V10H0V6.41h2v-2S1.641.615 5.23 0h4.411v3.23h-2c0-.05-1.128-.102-1.23 1.18z" fill="#0054A4"></path></svg><svg width="22" height="22" viewBox="0 0 22 22" fill="none" id="mess" y="20"><path d="M20.887 20.883a.399.399 0 0 1-.41.097l-4.304-1.436a9.96 9.96 0 0 1-5.171 1.451c-5.513 0-9.998-4.485-9.998-9.997C1.004 5.485 5.49 1 11.002 1 16.515 1 21 5.485 21 10.998a9.959 9.959 0 0 1-1.451 5.17l1.435 4.306a.4.4 0 0 1-.097.409zm-2.156-4.64a.4.4 0 0 1 .041-.34 9.164 9.164 0 0 0 1.428-4.905c0-5.072-4.126-9.198-9.198-9.198s-9.198 4.126-9.198 9.198c0 5.071 4.126 9.197 9.198 9.197 1.733 0 3.43-.493 4.906-1.427a.401.401 0 0 1 .34-.042l3.724 1.242-1.241-3.724z" fill="#CC3E1E" stroke="#CC3E1E" stroke-width=".3"></path><path d="M15.09 7.8H6.92c-.174 0-.315-.178-.315-.4 0-.22.14-.4.314-.4h8.17c.174 0 .315.18.315.4 0 .222-.141.4-.315.4zM5.805 11c0-.22.141-.4.315-.4h9.769c.173 0 .314.18.314.4 0 .22-.14.4-.314.4H6.12c-.174 0-.315-.18-.315-.4zM6.92 15c-.174 0-.315-.18-.315-.4 0-.221.14-.4.314-.4h8.17c.174 0 .315.179.315.4 0 .22-.141.4-.315.4H6.92z" fill="#CC3E1E" stroke="#CC3E1E" stroke-width=".3"></path></svg><svg width="49" height="44" viewBox="0 0 49 44" fill="none" id="multi-str-blue" y="42"><path d="M1 1l5.503 21L1 43M6.871 1l5.503 21-5.503 21M12.743 1l5.503 21-5.503 21M18.614 1l5.503 21-5.503 21M24.485 1l5.503 21-5.503 21M30.356 1l5.503 21-5.503 21M36.228 1l5.503 21-5.503 21M42.1 1l5.502 21L42.1 43" stroke="#95C5F3"></path></svg><svg width="49" height="44" viewBox="0 0 49 44" fill="none" id="multi-str-orange" y="86"><path d="M1 1l5.503 21L1 43M6.871 1l5.503 21-5.503 21M12.743 1l5.503 21-5.503 21M18.614 1l5.503 21-5.503 21M24.485 1l5.503 21-5.503 21M30.356 1l5.503 21-5.503 21M36.228 1l5.503 21-5.503 21M42.1 1l5.502 21L42.1 43" stroke="#CC3E1E"></path></svg><svg width="20" height="17" viewBox="0 0 20 17" fill="none" id="print" y="130"><rect x="4.56" y=".75" width="10.881" height="4.69" rx="1.25" fill="#fff" stroke="#0054A4" stroke-width="1.5"></rect><rect x=".75" y="4.893" width="18.5" height="8.5" rx="1.25" fill="#fff" stroke="#0054A4" stroke-width="1.5"></rect><rect x="4.56" y="11.56" width="10.881" height="4.69" rx="1.25" fill="#fff" stroke="#0054A4" stroke-width="1.5"></rect></svg><svg width="20" height="17" viewBox="0 0 20 17" fill="none" id="print-white" y="147"><rect x="4.56" y=".75" width="10.881" height="4.69" rx="1.25" fill="#95C5F3" stroke="#fff" stroke-width="1.5"></rect><rect x=".75" y="4.893" width="18.5" height="8.5" rx="1.25" fill="#95C5F3" stroke="#fff" stroke-width="1.5"></rect><rect x="4.56" y="11.56" width="10.881" height="4.69" rx="1.25" fill="#95C5F3" stroke="#fff" stroke-width="1.5"></rect></svg><svg width="14" height="13" viewBox="0 0 14 13" fill="none" id="reset" y="164"><path fill-rule="evenodd" clip-rule="evenodd" d="M1.55 1.545a.55.55 0 0 1 .55.55v2.75h2.75a.55.55 0 1 1 0 1.1h-3.3a.55.55 0 0 1-.55-.55v-3.3a.55.55 0 0 1 .55-.55z" fill="#0054A4" stroke="#0054A4" stroke-width=".3" stroke-linecap="round" stroke-linejoin="round"></path><path fill-rule="evenodd" clip-rule="evenodd" d="M6.833 1.054a5.5 5.5 0 1 1-4.421 7.274.55.55 0 1 1 1.037-.366 4.4 4.4 0 1 0 1.03-4.564L1.927 5.796a.55.55 0 0 1-.754-.802L3.72 2.602a5.5 5.5 0 0 1 3.114-1.548z" fill="#0054A4" stroke="#0054A4" stroke-width=".3" stroke-linecap="round" stroke-linejoin="round"></path></svg><svg width="14" height="13" viewBox="0 0 14 13" fill="none" id="reset-color" y="177"><path fill-rule="evenodd" clip-rule="evenodd" d="M1.55 1.545a.55.55 0 0 1 .55.55v2.75h2.75a.55.55 0 1 1 0 1.1h-3.3a.55.55 0 0 1-.55-.55v-3.3a.55.55 0 0 1 .55-.55z" fill="#CC3E1E" stroke="#CC3E1E" stroke-width=".3" stroke-linecap="round" stroke-linejoin="round"></path><path fill-rule="evenodd" clip-rule="evenodd" d="M6.833 1.054a5.5 5.5 0 1 1-4.421 7.274.55.55 0 1 1 1.037-.366 4.4 4.4 0 1 0 1.03-4.564L1.927 5.796a.55.55 0 0 1-.754-.802L3.72 2.602a5.5 5.5 0 0 1 3.114-1.548z" fill="#CC3E1E" stroke="#CC3E1E" stroke-width=".3" stroke-linecap="round" stroke-linejoin="round"></path></svg><svg width="18" height="18" viewBox="0 0 18 18" fill="none" id="search" y="190"><path fill-rule="evenodd" clip-rule="evenodd" d="M8.1 1.8a6.3 6.3 0 1 0 0 12.6 6.3 6.3 0 0 0 0-12.6zM0 8.1a8.1 8.1 0 1 1 16.2 0A8.1 8.1 0 0 1 0 8.1z" fill="#0054A4"></path><path fill-rule="evenodd" clip-rule="evenodd" d="M12.549 12.549a.9.9 0 0 1 1.272 0l3.915 3.915a.9.9 0 1 1-1.272 1.272l-3.915-3.915a.9.9 0 0 1 0-1.272z" fill="#0054A4"></path></svg><svg width="18" height="17" viewBox="0 0 18 17" fill="none" id="share" y="208"><path d="M10.665.197a.675.675 0 0 0-1.151.479v3.606c-3.648.145-5.474 1.659-5.753 1.91a10.248 10.248 0 0 0-3.553 5.956c-.228 1.13-.269 2.29-.12 3.432v.004l.004.03.144.826a.676.676 0 0 0 1.244.232l.43-.718c1.321-2.198 2.967-3.655 4.894-4.33a7.087 7.087 0 0 1 2.71-.398v3.735a.676.676 0 0 0 1.154.476l7.136-7.178a.676.676 0 0 0-.003-.956L10.665.197zm.2 13.126v-2.706a.676.676 0 0 0-.569-.667c-.577-.093-2.118-.24-3.939.398-1.942.68-3.623 2.021-5.007 3.99a9.634 9.634 0 0 1 .183-1.927c.41-2.077 1.453-3.822 3.098-5.185a.62.62 0 0 0 .042-.037c.047-.044 1.762-1.594 5.51-1.566h.005a.676.676 0 0 0 .676-.676V2.302l5.506 5.483-5.506 5.538z" fill="#0054A4"></path></svg><svg width="17" height="16" viewBox="0 0 17 16" fill="none" id="str-big-link-inside" y="225"><path d="M1 8h14.5m0 0l-7-7m7 7l-7 7" stroke="#fff" stroke-width="1.5" stroke-linecap="round"></path></svg><svg width="17" height="16" viewBox="0 0 17 16" fill="none" id="str-link" y="241"><path d="M1 8h14.5m0 0l-7-7m7 7l-7 7" stroke="#CC3E1E" stroke-width="1.5" stroke-linecap="round"></path></svg><svg width="21" height="17" viewBox="0 0 21 17" fill="none" id="tw" y="257"><path d="M18.174 2.792l2.03-.406s-1.675 1.878-2.03 2.03c-.051.914 0 1.219 0 1.219C14.316 22.235 0 14.874 0 14.874c5.229.101 5.635-2.03 5.635-2.03-3.046-.458-3.655-2.437-3.655-2.437C3.046 10.914 3.604 10 3.604 10 .355 9.138.761 5.99.761 5.99c.559.507 1.473.71 1.98.76-.304-.405-3.35-4.111-1.523-5.99 0 0 2.285 4.062 8.173 4.417l.406-.102c-.101-.304-.101-.558-.101-.863A4.203 4.203 0 0 1 13.909 0c2.843 0 3.452 1.624 3.452 1.624l2.03-1.218c0-.05-.202 1.98-1.217 2.386z" fill="#0054A4"></path></svg><svg width="23" height="13" viewBox="0 0 23 13" fill="none" id="vk" y="274"><path d="M10.982 12.747h1.354s.431-.062.616-.247c.185-.184.185-.615.185-.615s0-1.786.8-2.032c.8-.247 1.91 1.724 3.018 2.524.862.554 1.478.431 1.478.431l3.017-.061s1.54-.123.8-1.355c-.061-.123-.43-.924-2.216-2.586-1.848-1.724-1.601-1.478.615-4.495 1.355-1.848 1.91-2.956 1.724-3.449-.184-.431-1.17-.308-1.17-.308h-3.386s-.247-.061-.431.062c-.185.123-.308.37-.308.37s-.554 1.416-1.232 2.647c-1.478 2.525-2.094 2.71-2.34 2.525-.554-.308-.43-1.416-.43-2.217 0-2.463.369-3.51-.74-3.756-.37-.062-.616-.123-1.6-.185-1.232 0-2.218 0-2.772.308-.37.185-.677.616-.492.616.246 0 .738.123.985.492.37.493.308 1.54.308 1.54s.184 2.894-.493 3.263c-.431.247-1.047-.246-2.402-2.586C5.193 2.463 4.64 1.17 4.64 1.17s0-.246-.185-.37C4.208.617 3.962.617 3.962.617H.759s-.492 0-.677.246c-.185.185 0 .554 0 .554s2.525 5.85 5.357 8.806c2.587 2.71 5.543 2.525 5.543 2.525z" fill="#0054A4"></path></svg></svg>