<svg xmlns="http://www.w3.org/2000/svg" xmlns:xlink="http://www.w3.org/1999/xlink" width="59" height="523" viewBox="0 0 59 523"><svg width="42" height="45" viewBox="0 0 42 45" fill="none" id="calendar" y="0"><path d="M31.621 37.031L29.53 34.94l-.85.85 2.941 2.94 4.466-4.466-.85-.85-3.616 3.617zM10.291 20.587h-.896a.918.918 0 1 0 0 1.836h.896a.918.918 0 1 0 0-1.836zM10.291 28.313h-.896a.918.918 0 1 0 0 1.836h.896a.918.918 0 1 0 0-1.836zM10.291 36.044h-.896a.918.918 0 1 0 0 1.836h.896a.918.918 0 1 0 0-1.836zM21.203 20.587h-.896a.918.918 0 1 0 0 1.836h.896a.918.918 0 1 0 0-1.836zM21.203 28.313h-.896a.918.918 0 1 0 0 1.836h.896a.918.918 0 1 0 0-1.836zM21.203 36.044h-.896a.918.918 0 1 0 0 1.836h.896a.918.918 0 1 0 0-1.836zM31.22 22.423h.896a.918.918 0 1 0 0-1.836h-.897a.918.918 0 1 0 0 1.836zM31.22 30.149h.896a.918.918 0 1 0 0-1.836h-.897a.918.918 0 1 0 0 1.836z" fill="#CC3E1E"></path><path d="M37.662 3.306V1.583C37.662.71 36.952 0 36.079 0h-1.308c-.873 0-1.583.71-1.583 1.583v1.689H22.992v-1.69C22.992.71 22.282 0 21.409 0H20.1c-.872 0-1.582.71-1.582 1.583v1.689H8.322v-1.69C8.322.71 7.612 0 6.739 0H5.431c-.873 0-1.583.71-1.583 1.583v1.754A4.578 4.578 0 0 0 0 7.87v32.523c0 2.536 2.063 4.599 4.6 4.599h32.522c2.536 0 4.599-2.064 4.599-4.6V7.872a4.603 4.603 0 0 0-4.06-4.565zM34.39 1.583c0-.21.17-.381.38-.381h1.31c.21 0 .38.17.38.38v4.581c0 .21-.17.381-.38.381h-1.31c-.21 0-.38-.17-.38-.38V1.582zm-14.67 0c0-.21.17-.381.38-.381h1.31c.21 0 .38.17.38.38v4.581c0 .21-.17.381-.38.381H20.1c-.21 0-.38-.17-.38-.38V1.582zm-14.67 0c0-.21.171-.381.381-.381H6.74c.21 0 .38.17.38.38v4.581c0 .21-.17.381-.38.381H5.43c-.21 0-.38-.17-.38-.38V1.582zM3.85 4.56v1.604c0 .872.71 1.582 1.582 1.582H6.74c.872 0 1.582-.71 1.582-1.582v-1.69H18.52v1.69c0 .872.71 1.582 1.582 1.582h1.31c.872 0 1.582-.71 1.582-1.582v-1.69H33.19v1.69c0 .872.71 1.582 1.582 1.582h1.309c.872 0 1.582-.71 1.582-1.582V4.52a3.4 3.4 0 0 1 2.858 3.35v5.847H1.201V7.871a3.38 3.38 0 0 1 2.648-3.31zm33.273 39.231H4.6a3.402 3.402 0 0 1-3.398-3.397V14.92H40.52v25.473a3.402 3.402 0 0 1-3.398 3.397z" fill="#CC3E1E"></path></svg><svg width="15" height="15" viewBox="0 0 15 15" fill="none" id="download" y="45"><path fill-rule="evenodd" clip-rule="evenodd" d="M.75 9a.75.75 0 0 1 .75.75v3a.75.75 0 0 0 .75.75h10.5a.75.75 0 0 0 .75-.75v-3a.75.75 0 0 1 1.5 0v3A2.25 2.25 0 0 1 12.75 15H2.25A2.25 2.25 0 0 1 0 12.75v-3A.75.75 0 0 1 .75 9z" fill="#0054A4"></path><path fill-rule="evenodd" clip-rule="evenodd" d="M3.22 5.47a.75.75 0 0 1 1.06 0L7.5 8.69l3.22-3.22a.75.75 0 0 1 1.06 1.06l-3.75 3.75a.75.75 0 0 1-1.06 0L3.22 6.53a.75.75 0 0 1 0-1.06z" fill="#0054A4"></path><path fill-rule="evenodd" clip-rule="evenodd" d="M7.5 0a.75.75 0 0 1 .75.75v9a.75.75 0 0 1-1.5 0v-9A.75.75 0 0 1 7.5 0z" fill="#0054A4"></path></svg><svg width="59" height="58" viewBox="0 0 59 58" fill="none" id="europe" y="60"><path d="M29.59 1l-1.177 3.622h-3.808l3.08 2.239-1.176 3.622 3.08-2.239 3.082 2.239-1.177-3.622 3.08-2.24h-3.807L29.59 1zm1.11 5.603l.687 2.112L29.59 7.41l-1.797 1.305.686-2.112-1.797-1.306h2.221l.687-2.113.686 2.113h2.222L30.7 6.603zM38.431 13.275l3.081-2.239 3.081 2.239-1.176-3.622 3.08-2.239H42.69l-1.177-3.622-1.176 3.622h-3.809l3.081 2.239-1.177 3.622zm.174-5.186h2.22l.687-2.113.687 2.113h2.221l-1.797 1.306.687 2.113-1.798-1.306-1.797 1.306.687-2.113-1.797-1.306zM48.103 18.241l-1.177 3.622 3.081-2.238 3.081 2.238-1.177-3.622 3.081-2.238h-3.808l-1.177-3.622-1.177 3.622h-3.808l3.081 2.238zm1.218-1.563l.686-2.113.687 2.113h2.221l-1.797 1.306.686 2.112-1.797-1.305-1.797 1.305.687-2.112-1.798-1.306h2.222zM57.987 27.838h-3.809l-1.177-3.623-1.176 3.623h-3.809l3.081 2.238-1.177 3.622 3.081-2.239 3.082 2.24-1.177-3.623 3.08-2.238zM53 30.625l-1.797 1.306.687-2.113-1.797-1.305h2.22l.687-2.113.687 2.113h2.221l-1.797 1.305.686 2.113-1.797-1.306zM51.184 39.501l-1.177-3.622-1.177 3.622h-3.808l3.081 2.239-1.177 3.622 3.081-2.238 3.081 2.238-1.177-3.622 3.082-2.239h-3.809zm.62 4.094l-1.797-1.306-1.797 1.306.687-2.113-1.797-1.306h2.22l.687-2.112.687 2.112h2.221l-1.797 1.306.686 2.113zM42.69 48.196l-1.178-3.622-1.176 3.622h-3.809l3.081 2.239-1.177 3.622 3.081-2.239 3.081 2.239-1.176-3.622 3.08-2.239H42.69zm.62 4.093l-1.798-1.305-1.797 1.305.687-2.112-1.797-1.306h2.22l.687-2.113.687 2.113h2.221l-1.797 1.306.687 2.112zM30.767 51.204l-1.177-3.622-1.177 3.622h-3.808l3.08 2.239-1.176 3.622 3.08-2.238 3.082 2.238-1.177-3.622 3.08-2.239h-3.807zm.62 4.094l-1.797-1.306-1.797 1.306.686-2.113-1.797-1.306h2.221l.687-2.112.686 2.112h2.222L30.7 53.185l.687 2.113zM18.987 48.196l-1.176-3.622-1.177 3.622h-3.809l3.081 2.239-1.177 3.622 3.082-2.239 3.08 2.239-1.176-3.622 3.08-2.239h-3.808zm.62 4.093l-1.796-1.305-1.798 1.305.687-2.112-1.797-1.306h2.221l.687-2.113.686 2.113h2.221l-1.797 1.306.687 2.112zM14.106 39.501h-3.808L9.12 35.88l-1.177 3.622H4.136l3.08 2.239-1.176 3.622 3.08-2.238 3.082 2.238-1.177-3.622 3.081-2.239zM9.121 42.29l-1.797 1.306.686-2.113-1.797-1.306h2.221l.687-2.112.686 2.112h2.222l-1.797 1.306.686 2.113-1.797-1.306zM5.985 31.46l3.081 2.238-1.176-3.622 3.08-2.238H7.163l-1.177-3.623-1.177 3.623H1l3.081 2.238-1.177 3.622 3.081-2.239zm-2.907-2.947h2.22l.687-2.113.687 2.113h2.221l-1.797 1.305.686 2.113-1.797-1.306-1.797 1.306.687-2.113-1.797-1.305zM6.04 21.863l3.08-2.238 3.082 2.238-1.177-3.622 3.08-2.238h-3.807L9.12 12.38l-1.177 3.622H4.136l3.08 2.238-1.176 3.622zm.173-5.185h2.221l.687-2.113.686 2.113h2.222l-1.797 1.306.686 2.112-1.797-1.305-1.797 1.305.686-2.112-1.797-1.306zM17.81 3.792l-1.176 3.622h-3.809l3.081 2.239-1.177 3.622 3.082-2.239 3.08 2.239-1.176-3.622 3.08-2.239h-3.808l-1.176-3.622zm1.111 5.603l.687 2.113-1.797-1.306-1.798 1.306.687-2.113-1.797-1.306h2.221l.687-2.113.686 2.113h2.221l-1.797 1.306z" fill="#CC3E1E" stroke="#CC3E1E" stroke-width=".4"></path></svg><svg width="10" height="20" viewBox="0 0 10 20" fill="none" id="fb" y="118"><path d="M6.41 4.41v2h3.231L9.231 10H6.41v10H2V10H0V6.41h2v-2S1.641.615 5.23 0h4.411v3.23h-2c0-.05-1.128-.102-1.23 1.18z" fill="#0054A4"></path></svg><svg width="44" height="50" viewBox="0 0 44 50" fill="none" id="iso" y="138"><path fill-rule="evenodd" clip-rule="evenodd" d="M8.145 1h34.523v40.208c0 1.975 0 3.483-.108 4.62-.108 1.134-.328 1.973-.828 2.555-.509.594-1.252.86-2.243.989-.982.127-2.281.127-3.966.127H1V9.291c0-1.976 0-3.483.108-4.62.108-1.134.329-1.973.828-2.556.509-.593 1.252-.86 2.243-.988C5.162 1 6.46 1 8.145 1zM1.788 4.736c-.105 1.1-.105 2.575-.105 4.575v39.505h33.813c1.717 0 2.972 0 3.905-.122.93-.12 1.468-.353 1.813-.755.354-.414.56-1.069.666-2.176.105-1.101.105-2.576.105-4.576V1.683H8.172c-1.717 0-2.971 0-3.905.122-.93.12-1.467.353-1.812.755-.355.414-.561 1.069-.667 2.176z" fill="#CC3E1E" stroke="#CC3E1E" stroke-width=".8" stroke-miterlimit="10" stroke-linecap="round"></path><path fill-rule="evenodd" clip-rule="evenodd" d="M7.83 35.497c0-.19.154-.342.342-.342h27.324a.342.342 0 0 1 0 .683H8.172a.342.342 0 0 1-.341-.341zM7.83 39.709c0-.19.154-.342.342-.342h27.324a.342.342 0 0 1 0 .683H8.172a.342.342 0 0 1-.341-.341z" fill="#CC3E1E" stroke="#CC3E1E" stroke-width=".8" stroke-miterlimit="10" stroke-linecap="round"></path><path d="M14.86 16.07h-.866V8.672h.866v7.4zM16.516 14.85c.77.38 1.596.57 2.476.57 1.084 0 1.626-.493 1.626-1.48 0-.32-.086-.58-.26-.776-.17-.2-.482-.357-.935-.47l-1.471-.37c-1.124-.284-1.686-.884-1.686-1.802 0-.703.242-1.225.725-1.566.484-.343 1.153-.515 2.006-.515.447 0 .866.049 1.256.145.39.097.717.227.98.39l-.25.706a3.927 3.927 0 0 0-.89-.33 4.359 4.359 0 0 0-1.116-.145c-1.207 0-1.81.418-1.81 1.255 0 .284.091.512.274.686.187.17.466.3.836.39l1.406.34c.6.144 1.055.374 1.366.69.31.314.465.761.465 1.341 0 .754-.232 1.323-.695 1.707-.46.38-1.088.57-1.882.57-.593 0-1.122-.06-1.585-.18-.46-.124-.826-.269-1.096-.436l.26-.72zM23.41 12.373c0 .951.218 1.698.655 2.242.437.54 1.083.81 1.937.81.854 0 1.495-.27 1.926-.81.433-.54.65-1.288.65-2.242 0-.973-.218-1.729-.655-2.266-.434-.537-1.072-.805-1.916-.805-.844 0-1.488.268-1.931.805-.444.537-.666 1.293-.666 2.267zm6.094 0c0 .564-.079 1.08-.235 1.546a3.45 3.45 0 0 1-.67 1.206c-.291.334-.658.594-1.102.78a3.88 3.88 0 0 1-1.495.276c-.747 0-1.388-.159-1.921-.476a3.023 3.023 0 0 1-1.196-1.33c-.264-.57-.396-1.24-.396-2.007 0-1.184.309-2.117.926-2.801.617-.684 1.481-1.026 2.592-1.026 1.094 0 1.95.345 2.566 1.036.62.687.93 1.62.93 2.796z" fill="#CC3E1E"></path><path d="M14.86 16.07h-.866V8.672h.866v7.4zM16.516 14.85c.77.38 1.596.57 2.476.57 1.084 0 1.626-.493 1.626-1.48 0-.32-.086-.58-.26-.776-.17-.2-.482-.357-.935-.47l-1.471-.37c-1.124-.284-1.686-.884-1.686-1.802 0-.703.242-1.225.725-1.566.484-.343 1.153-.515 2.006-.515.447 0 .866.049 1.256.145.39.097.717.227.98.39l-.25.706a3.927 3.927 0 0 0-.89-.33 4.359 4.359 0 0 0-1.116-.145c-1.207 0-1.81.418-1.81 1.255 0 .284.091.512.274.686.187.17.466.3.836.39l1.406.34c.6.144 1.055.374 1.366.69.31.314.465.761.465 1.341 0 .754-.232 1.323-.695 1.707-.46.38-1.088.57-1.882.57-.593 0-1.122-.06-1.585-.18-.46-.124-.826-.269-1.096-.436l.26-.72zM23.41 12.373c0 .951.218 1.698.655 2.242.437.54 1.083.81 1.937.81.854 0 1.495-.27 1.926-.81.433-.54.65-1.288.65-2.242 0-.973-.218-1.729-.655-2.266-.434-.537-1.072-.805-1.916-.805-.844 0-1.488.268-1.931.805-.444.537-.666 1.293-.666 2.267zm6.094 0c0 .564-.079 1.08-.235 1.546a3.45 3.45 0 0 1-.67 1.206c-.291.334-.658.594-1.102.78a3.88 3.88 0 0 1-1.495.276c-.747 0-1.388-.159-1.921-.476a3.023 3.023 0 0 1-1.196-1.33c-.264-.57-.396-1.24-.396-2.007 0-1.184.309-2.117.926-2.801.617-.684 1.481-1.026 2.592-1.026 1.094 0 1.95.345 2.566 1.036.62.687.93 1.62.93 2.796z" stroke="#CC3E1E" stroke-width=".5"></path></svg><svg width="22" height="22" viewBox="0 0 22 22" fill="none" id="mess" y="188"><path d="M20.887 20.883a.399.399 0 0 1-.41.097l-4.304-1.436a9.96 9.96 0 0 1-5.171 1.451c-5.513 0-9.998-4.485-9.998-9.997C1.004 5.485 5.49 1 11.002 1 16.515 1 21 5.485 21 10.998a9.959 9.959 0 0 1-1.451 5.17l1.435 4.306a.4.4 0 0 1-.097.409zm-2.156-4.64a.4.4 0 0 1 .041-.34 9.164 9.164 0 0 0 1.428-4.905c0-5.072-4.126-9.198-9.198-9.198s-9.198 4.126-9.198 9.198c0 5.071 4.126 9.197 9.198 9.197 1.733 0 3.43-.493 4.906-1.427a.401.401 0 0 1 .34-.042l3.724 1.242-1.241-3.724z" fill="#CC3E1E" stroke="#CC3E1E" stroke-width=".3"></path><path d="M15.09 7.8H6.92c-.174 0-.315-.178-.315-.4 0-.22.14-.4.314-.4h8.17c.174 0 .315.18.315.4 0 .222-.141.4-.315.4zM5.805 11c0-.22.141-.4.315-.4h9.769c.173 0 .314.18.314.4 0 .22-.14.4-.314.4H6.12c-.174 0-.315-.18-.315-.4zM6.92 15c-.174 0-.315-.18-.315-.4 0-.221.14-.4.314-.4h8.17c.174 0 .315.179.315.4 0 .22-.141.4-.315.4H6.92z" fill="#CC3E1E" stroke="#CC3E1E" stroke-width=".3"></path></svg><svg width="49" height="44" viewBox="0 0 49 44" fill="none" id="multi-str-blue" y="210"><path d="M1 1l5.503 21L1 43M6.871 1l5.503 21-5.503 21M12.743 1l5.503 21-5.503 21M18.614 1l5.503 21-5.503 21M24.485 1l5.503 21-5.503 21M30.356 1l5.503 21-5.503 21M36.228 1l5.503 21-5.503 21M42.1 1l5.502 21L42.1 43" stroke="#95C5F3"></path></svg><svg width="49" height="44" viewBox="0 0 49 44" fill="none" id="multi-str-orange" y="254"><path d="M1 1l5.503 21L1 43M6.871 1l5.503 21-5.503 21M12.743 1l5.503 21-5.503 21M18.614 1l5.503 21-5.503 21M24.485 1l5.503 21-5.503 21M30.356 1l5.503 21-5.503 21M36.228 1l5.503 21-5.503 21M42.1 1l5.502 21L42.1 43" stroke="#CC3E1E"></path></svg><svg width="44" height="49" viewBox="0 0 44 49" fill="none" id="multi-str-orange-down" y="298"><path d="M43 1L22 6.503 1 1M43 6.871l-21 5.503L1 6.871M43 12.743l-21 5.503-21-5.503M43 18.614l-21 5.503-21-5.503M43 24.485l-21 5.503-21-5.503M43 30.357L22 35.86 1 30.357M43 36.228l-21 5.503-21-5.503M43 42.1l-21 5.502L1 42.1" stroke="#CC3E1E"></path></svg><svg width="20" height="17" viewBox="0 0 20 17" fill="none" id="print" y="347"><rect x="4.56" y=".75" width="10.881" height="4.69" rx="1.25" fill="#fff" stroke="#0054A4" stroke-width="1.5"></rect><rect x=".75" y="4.893" width="18.5" height="8.5" rx="1.25" fill="#fff" stroke="#0054A4" stroke-width="1.5"></rect><rect x="4.56" y="11.56" width="10.881" height="4.69" rx="1.25" fill="#fff" stroke="#0054A4" stroke-width="1.5"></rect></svg><svg width="20" height="17" viewBox="0 0 20 17" fill="none" id="print-white" y="364"><rect x="4.56" y=".75" width="10.881" height="4.69" rx="1.25" fill="#95C5F3" stroke="#fff" stroke-width="1.5"></rect><rect x=".75" y="4.893" width="18.5" height="8.5" rx="1.25" fill="#95C5F3" stroke="#fff" stroke-width="1.5"></rect><rect x="4.56" y="11.56" width="10.881" height="4.69" rx="1.25" fill="#95C5F3" stroke="#fff" stroke-width="1.5"></rect></svg><svg width="14" height="13" viewBox="0 0 14 13" fill="none" id="reset" y="381"><path fill-rule="evenodd" clip-rule="evenodd" d="M1.55 1.545a.55.55 0 0 1 .55.55v2.75h2.75a.55.55 0 1 1 0 1.1h-3.3a.55.55 0 0 1-.55-.55v-3.3a.55.55 0 0 1 .55-.55z" fill="#0054A4" stroke="#0054A4" stroke-width=".3" stroke-linecap="round" stroke-linejoin="round"></path><path fill-rule="evenodd" clip-rule="evenodd" d="M6.833 1.054a5.5 5.5 0 1 1-4.421 7.274.55.55 0 1 1 1.037-.366 4.4 4.4 0 1 0 1.03-4.564L1.927 5.796a.55.55 0 0 1-.754-.802L3.72 2.602a5.5 5.5 0 0 1 3.114-1.548z" fill="#0054A4" stroke="#0054A4" stroke-width=".3" stroke-linecap="round" stroke-linejoin="round"></path></svg><svg width="14" height="13" viewBox="0 0 14 13" fill="none" id="reset-color" y="394"><path fill-rule="evenodd" clip-rule="evenodd" d="M1.55 1.545a.55.55 0 0 1 .55.55v2.75h2.75a.55.55 0 1 1 0 1.1h-3.3a.55.55 0 0 1-.55-.55v-3.3a.55.55 0 0 1 .55-.55z" fill="#CC3E1E" stroke="#CC3E1E" stroke-width=".3" stroke-linecap="round" stroke-linejoin="round"></path><path fill-rule="evenodd" clip-rule="evenodd" d="M6.833 1.054a5.5 5.5 0 1 1-4.421 7.274.55.55 0 1 1 1.037-.366 4.4 4.4 0 1 0 1.03-4.564L1.927 5.796a.55.55 0 0 1-.754-.802L3.72 2.602a5.5 5.5 0 0 1 3.114-1.548z" fill="#CC3E1E" stroke="#CC3E1E" stroke-width=".3" stroke-linecap="round" stroke-linejoin="round"></path></svg><svg width="18" height="18" viewBox="0 0 18 18" fill="none" id="search" y="407"><path fill-rule="evenodd" clip-rule="evenodd" d="M8.1 1.8a6.3 6.3 0 1 0 0 12.6 6.3 6.3 0 0 0 0-12.6zM0 8.1a8.1 8.1 0 1 1 16.2 0A8.1 8.1 0 0 1 0 8.1z" fill="#0054A4"></path><path fill-rule="evenodd" clip-rule="evenodd" d="M12.549 12.549a.9.9 0 0 1 1.272 0l3.915 3.915a.9.9 0 1 1-1.272 1.272l-3.915-3.915a.9.9 0 0 1 0-1.272z" fill="#0054A4"></path></svg><svg width="18" height="17" viewBox="0 0 18 17" fill="none" id="share" y="425"><path d="M10.665.197a.675.675 0 0 0-1.151.479v3.606c-3.648.145-5.474 1.659-5.753 1.91a10.248 10.248 0 0 0-3.553 5.956c-.228 1.13-.269 2.29-.12 3.432v.004l.004.03.144.826a.676.676 0 0 0 1.244.232l.43-.718c1.321-2.198 2.967-3.655 4.894-4.33a7.087 7.087 0 0 1 2.71-.398v3.735a.676.676 0 0 0 1.154.476l7.136-7.178a.676.676 0 0 0-.003-.956L10.665.197zm.2 13.126v-2.706a.676.676 0 0 0-.569-.667c-.577-.093-2.118-.24-3.939.398-1.942.68-3.623 2.021-5.007 3.99a9.634 9.634 0 0 1 .183-1.927c.41-2.077 1.453-3.822 3.098-5.185a.62.62 0 0 0 .042-.037c.047-.044 1.762-1.594 5.51-1.566h.005a.676.676 0 0 0 .676-.676V2.302l5.506 5.483-5.506 5.538z" fill="#0054A4"></path></svg><svg width="13" height="3" viewBox="0 0 13 3" fill="none" id="small-str" y="442"><path d="M12 1L6.5 2.441 1 1" stroke="#0054A4"></path></svg><svg width="17" height="16" viewBox="0 0 17 16" fill="none" id="str-big-link-inside" y="445"><path d="M1 8h14.5m0 0l-7-7m7 7l-7 7" stroke="#fff" stroke-width="1.5" stroke-linecap="round"></path></svg><svg width="17" height="16" viewBox="0 0 17 16" fill="none" id="str-link" y="461"><path d="M1 8h14.5m0 0l-7-7m7 7l-7 7" stroke="#CC3E1E" stroke-width="1.5" stroke-linecap="round"></path></svg><svg width="17" height="16" viewBox="0 0 17 16" fill="none" id="str-news" y="477"><path d="M1 8h14.5m0 0l-7-7m7 7l-7 7" stroke="#0054A4" stroke-width="1.5" stroke-linecap="round"></path></svg><svg width="21" height="17" viewBox="0 0 21 17" fill="none" id="tw" y="493"><path d="M18.174 2.792l2.03-.406s-1.675 1.878-2.03 2.03c-.051.914 0 1.219 0 1.219C14.316 22.235 0 14.874 0 14.874c5.229.101 5.635-2.03 5.635-2.03-3.046-.458-3.655-2.437-3.655-2.437C3.046 10.914 3.604 10 3.604 10 .355 9.138.761 5.99.761 5.99c.559.507 1.473.71 1.98.76-.304-.405-3.35-4.111-1.523-5.99 0 0 2.285 4.062 8.173 4.417l.406-.102c-.101-.304-.101-.558-.101-.863A4.203 4.203 0 0 1 13.909 0c2.843 0 3.452 1.624 3.452 1.624l2.03-1.218c0-.05-.202 1.98-1.217 2.386z" fill="#0054A4"></path></svg><svg width="23" height="13" viewBox="0 0 23 13" fill="none" id="vk" y="510"><path d="M10.982 12.747h1.354s.431-.062.616-.247c.185-.184.185-.615.185-.615s0-1.786.8-2.032c.8-.247 1.91 1.724 3.018 2.524.862.554 1.478.431 1.478.431l3.017-.061s1.54-.123.8-1.355c-.061-.123-.43-.924-2.216-2.586-1.848-1.724-1.601-1.478.615-4.495 1.355-1.848 1.91-2.956 1.724-3.449-.184-.431-1.17-.308-1.17-.308h-3.386s-.247-.061-.431.062c-.185.123-.308.37-.308.37s-.554 1.416-1.232 2.647c-1.478 2.525-2.094 2.71-2.34 2.525-.554-.308-.43-1.416-.43-2.217 0-2.463.369-3.51-.74-3.756-.37-.062-.616-.123-1.6-.185-1.232 0-2.218 0-2.772.308-.37.185-.677.616-.492.616.246 0 .738.123.985.492.37.493.308 1.54.308 1.54s.184 2.894-.493 3.263c-.431.247-1.047-.246-2.402-2.586C5.193 2.463 4.64 1.17 4.64 1.17s0-.246-.185-.37C4.208.617 3.962.617 3.962.617H.759s-.492 0-.677.246c-.185.185 0 .554 0 .554s2.525 5.85 5.357 8.806c2.587 2.71 5.543 2.525 5.543 2.525z" fill="#0054A4"></path></svg></svg>